<?xml version="1.0" encoding="utf-8"?>
<!-- Generator: Adobe Illustrator 25.0.0, SVG Export Plug-In . SVG Version: 6.00 Build 0)  -->
<svg version="1.1" id="Layer_1" xmlns="http://www.w3.org/2000/svg" xmlns:xlink="http://www.w3.org/1999/xlink" x="0px" y="0px"
	 viewBox="0 0 187.997 187.997" style="enable-background:new 0 0 187.997 187.997;" xml:space="preserve">
<style type="text/css">
	.st0{enable-background:new    ;}
	.st1{fill:#0FD297;}
</style>
<g class="st0">
	<path class="st1" d="M10.238,150.968c0-0.614-0.368-0.921-0.921-0.921h-1.78v-3.56h3.99c1.903,0,2.762,0.798,2.762,2.394v0.798
		c0,0.675-0.061,1.228-0.061,1.228h0.061c1.043-2.517,4.051-4.972,7.427-4.972c3.683,0,5.831,1.657,6.506,4.972h0.061
		c1.228-2.639,4.235-4.972,7.734-4.972c4.91,0,7.181,2.823,7.181,8.348v9.391c0,0.614,0.368,0.921,0.921,0.921h1.78v3.56h-4.112
		c-1.964,0-2.762-0.798-2.762-2.762v-10.189c0-3.069-0.614-5.463-3.806-5.463c-3.008,0-5.34,2.639-6.077,5.586
		c-0.184,0.921-0.368,1.841-0.368,2.946v9.943h-4.174v-13.012c0-2.823-0.43-5.463-3.744-5.463c-3.192,0-5.401,2.639-6.261,5.77
		c-0.246,0.859-0.307,1.78-0.307,2.823v9.943h-4.051V150.968z"/>
	<path class="st1" d="M61.551,154.65h0.921v-0.184c0-3.806-1.412-5.217-4.788-5.217c-1.043,0-3.56,0.246-3.56,1.657v1.228h-3.928
		v-2.148c0-3.56,5.401-4.112,7.55-4.112c7.059,0,8.961,3.683,8.961,8.532v9.268c0,0.614,0.368,0.921,0.921,0.921h1.78v3.56h-3.928
		c-1.903,0-2.701-0.921-2.701-2.517c0-0.737,0.061-1.289,0.061-1.289h-0.061c0,0-1.719,4.297-6.936,4.297
		c-3.744,0-7.366-2.271-7.366-6.629C48.416,155.08,57.868,154.65,61.551,154.65z M56.702,165.33c3.499,0,5.831-3.683,5.831-6.936
		v-0.737h-1.105c-3.13,0-8.839,0.184-8.839,4.174C52.651,163.612,54.001,165.33,56.702,165.33z"/>
	<path class="st1" d="M73.888,150.968c0-0.614-0.368-0.921-0.921-0.921h-1.78v-3.56h3.99c1.841,0,2.762,0.798,2.762,2.394v0.798
		c0,0.675-0.061,1.228-0.061,1.228h0.061c0.859-1.903,3.437-4.972,8.163-4.972c5.156,0,7.488,2.823,7.488,8.348v9.391
		c0,0.614,0.368,0.921,0.921,0.921h1.78v3.56h-4.112c-1.964,0-2.762-0.798-2.762-2.762v-10.189c0-3.069-0.614-5.463-4.112-5.463
		c-3.376,0-6.015,2.21-6.875,5.34c-0.307,0.859-0.368,1.841-0.368,2.946v10.189h-4.174V150.968z"/>
	<path class="st1" d="M108.568,145.934c5.033,0,6.69,3.376,6.69,3.376h0.061c0,0-0.061-0.675-0.061-1.473v-5.463
		c0-0.675-0.368-0.921-0.921-0.921h-1.78v-3.56h4.112c1.964,0,2.762,0.798,2.762,2.762v23.079c0,0.614,0.368,0.921,0.921,0.921h1.78
		v3.56h-3.99c-1.903,0-2.639-0.859-2.639-2.332c0-0.614,0.061-1.105,0.061-1.105h-0.061c0,0-1.78,3.928-7.12,3.928
		c-5.892,0-9.575-4.665-9.575-11.417C98.686,150.415,102.798,145.934,108.568,145.934z M115.381,157.29
		c0-3.867-2.026-7.734-6.199-7.734c-3.376,0-6.261,2.823-6.261,7.795c0,4.726,2.517,7.795,6.138,7.795
		C112.312,165.085,115.381,162.814,115.381,157.29z"/>
	<path class="st1" d="M137.784,154.65h0.921v-0.184c0-3.806-1.412-5.217-4.788-5.217c-1.043,0-3.56,0.246-3.56,1.657v1.228h-3.928
		v-2.148c0-3.56,5.401-4.112,7.55-4.112c7.059,0,8.961,3.683,8.961,8.532v9.268c0,0.614,0.368,0.921,0.921,0.921h1.78v3.56h-3.928
		c-1.964,0-2.701-0.921-2.701-2.517c0-0.737,0.061-1.289,0.061-1.289h-0.061c0,0-1.719,4.297-6.936,4.297
		c-3.744,0-7.366-2.271-7.366-6.629C124.711,155.08,134.163,154.65,137.784,154.65z M132.997,165.33
		c3.499,0,5.831-3.683,5.831-6.936v-0.737h-1.105c-3.13,0-8.839,0.184-8.839,4.174C128.884,163.612,130.235,165.33,132.997,165.33z"
		/>
	<path class="st1" d="M150.06,142.374c0-0.675-0.368-0.921-0.921-0.921h-1.78v-3.56h4.112c1.964,0,2.762,0.798,2.762,2.762v23.079
		c0,0.614,0.368,0.921,0.921,0.921h1.78v3.56h-4.112c-1.964,0-2.762-0.798-2.762-2.762V142.374z"/>
	<path class="st1" d="M172.709,154.65h0.921v-0.184c0-3.806-1.412-5.217-4.788-5.217c-1.043,0-3.56,0.246-3.56,1.657v1.228h-3.928
		v-2.148c0-3.56,5.401-4.112,7.55-4.112c7.059,0,8.961,3.683,8.961,8.532v9.268c0,0.614,0.368,0.921,0.921,0.921h1.78v3.56h-3.99
		c-1.903,0-2.701-0.921-2.701-2.517c0-0.737,0.061-1.289,0.061-1.289h-0.061c0,0-1.719,4.297-6.936,4.297
		c-3.744,0-7.366-2.271-7.366-6.629C159.574,155.08,169.027,154.65,172.709,154.65z M167.86,165.33c3.499,0,5.831-3.683,5.831-6.936
		v-0.737h-1.105c-3.13,0-8.839,0.184-8.839,4.174C163.809,163.612,165.098,165.33,167.86,165.33z"/>
</g>
<g>
	<g>
		<g>
			<g>
				<path class="st1" d="M100.132,75.092c1.491,2.029,2.936,4.028,4.595,5.927c2.989,3.422,6.407,6.228,10.849,7.57
					c2.439,0.737,4.947,1.067,7.472,1.3c0.199,0.018,0.348,0.039,0.462,0.257c1.319,2.519,2.049,5.159,1.706,8.029
					c-0.027,0.224-0.063,0.446-0.105,0.723c-0.009,0.057-0.079,0.08-0.12,0.04c-0.599-0.59-1.17-1.12-1.793-1.589
					c-2.083-1.569-4.375-2.636-7.017-2.742c-3.516-0.141-6.534,1.948-7.77,5.311c-1.006,2.738-0.964,5.516-0.293,8.314
					c0.033,0.136,0.067,0.272,0.092,0.41c0.012,0.064,0.003,0.146-0.049,0.132c-1.037-0.303-1.966-0.826-2.845-1.432
					c-1.621-1.117-2.875-2.578-3.92-4.236c-0.172-0.274-0.063-0.46,0.037-0.678c0.858-1.872,1.618-3.779,2.196-5.76
					c1.168-4.004,0.991-7.995-0.055-11.987c-0.819-3.125-2.088-6.081-3.384-9.028c-0.071-0.16-0.133-0.324-0.199-0.486
					C99.946,75.052,100.077,75.001,100.132,75.092z"/>
				<path class="st1" d="M94.124,111.817c-0.062,0.175-0.31,0.177-0.373,0.003c-1.364-3.759-3.221-7.139-4.764-10.658
					c-1.018-2.32-1.974-4.664-2.328-7.2c0-0.001,0-0.001,0-0.002c-0.021-0.154,0.136-0.269,0.279-0.206
					c4.657,2.056,9.282,2.055,13.933-0.024c0.142-0.064,0.298,0.056,0.277,0.211c-0.256,1.875-0.82,3.546-1.464,5.195
					c-1.21,3.098-2.751,6.046-4.105,9.079C95.064,109.366,94.582,110.532,94.124,111.817z"/>
				<path class="st1" d="M93.634,68.893c0.085-0.206,0.378-0.203,0.459,0.004c0.189,0.483,0.372,0.956,0.573,1.421
					c1.337,3.095,2.694,6.182,4.019,9.283c0.4,0.935,0.706,1.91,1.084,2.856c0.134,0.337,0.073,0.477-0.269,0.608
					c-3.743,1.425-7.482,1.433-11.23,0.018c-0.354-0.134-0.373-0.281-0.261-0.612c1.147-3.383,2.684-6.603,4.088-9.88
					C92.623,71.364,93.121,70.125,93.634,68.893L93.634,68.893z"/>
			</g>
			<path class="st1" d="M127.103,90.251c-0.039-0.099,0.038-0.205,0.144-0.198c2.501,0.168,4.926,0.416,7.326,0.895
				c0.323,0.064,0.314,0.269,0.35,0.487c0.567,3.498,0.468,6.979-0.29,10.437c-0.91,4.15-2.634,7.915-5.522,11.067
				c-4.412,4.815-9.974,6.888-16.428,6.55c-5.902-0.309-11.107-2.498-15.702-6.185c-0.227-0.182-0.277-0.332-0.182-0.616
				c0.777-2.309,1.788-4.516,2.853-6.7c0-0.001,0.001-0.001,0.001-0.002c0.045-0.092,0.175-0.097,0.239-0.016
				c5.369,6.824,14.252,8.66,21.224,4.295C127.485,106.275,130.267,98.284,127.103,90.251z"/>
		</g>
		<g>
			<g>
				<path class="st1" d="M87.74,75.225c-1.012,2.306-2.02,4.557-2.835,6.943c-1.469,4.3-2.19,8.662-1.131,13.181
					c0.581,2.481,1.549,4.817,2.61,7.121c0.084,0.181,0.14,0.321,0.008,0.529c-1.522,2.402-3.443,4.354-6.1,5.492
					c-0.207,0.089-0.418,0.169-0.679,0.271c-0.054,0.021-0.109-0.028-0.094-0.084c0.211-0.814,0.385-1.573,0.48-2.347
					c0.317-2.588,0.095-5.107-1.134-7.448c-1.636-3.115-4.954-4.685-8.485-4.073c-2.874,0.498-5.259,1.923-7.347,3.903
					c-0.102,0.096-0.203,0.194-0.309,0.285c-0.05,0.042-0.125,0.076-0.139,0.024c-0.256-1.05-0.268-2.115-0.182-3.18
					c0.157-1.962,0.795-3.779,1.708-5.513c0.151-0.286,0.367-0.284,0.606-0.307c2.05-0.192,4.082-0.488,6.086-0.978
					c4.051-0.991,7.42-3.14,10.353-6.041c2.297-2.272,4.223-4.849,6.126-7.444c0.104-0.141,0.214-0.277,0.322-0.415
					C87.682,75.044,87.792,75.133,87.74,75.225z"/>
				<path class="st1" d="M52.931,88.385c-0.183,0.034-0.308-0.18-0.189-0.322c2.574-3.061,4.572-6.359,6.848-9.455
					c1.5-2.042,3.052-4.042,5.072-5.617c0.001,0,0.001-0.001,0.002-0.001c0.123-0.095,0.301-0.016,0.318,0.138
					c0.548,5.061,2.861,9.066,6.988,12.054c0.126,0.091,0.1,0.286-0.044,0.345c-1.752,0.716-3.481,1.063-5.231,1.33
					c-3.288,0.502-6.612,0.641-9.915,0.985C55.524,87.973,54.273,88.139,52.931,88.385z"/>
				<path class="st1" d="M89.86,66.499c0.221-0.029,0.365,0.226,0.226,0.4c-0.324,0.405-0.642,0.8-0.944,1.207
					c-2.012,2.706-4.007,5.424-6.029,8.122c-0.61,0.814-1.301,1.567-1.931,2.367c-0.224,0.285-0.377,0.302-0.661,0.071
					c-3.106-2.53-4.982-5.763-5.63-9.717c-0.061-0.373,0.057-0.463,0.4-0.532c3.503-0.698,7.061-0.977,10.6-1.4
					C87.215,66.858,88.536,66.67,89.86,66.499L89.86,66.499z"/>
			</g>
			<path class="st1" d="M88.098,106.162c0.066-0.083,0.196-0.07,0.243,0.026c1.105,2.25,2.103,4.474,2.888,6.792
				c0.106,0.312-0.076,0.407-0.247,0.546c-2.745,2.24-5.81,3.895-9.184,4.967c-4.049,1.287-8.171,1.676-12.345,0.751
				c-6.376-1.413-10.952-5.194-13.886-10.952c-2.683-5.265-3.39-10.868-2.494-16.691c0.044-0.288,0.149-0.406,0.443-0.465
				c2.388-0.482,4.805-0.709,7.229-0.879c0.001,0,0.001,0,0.002,0c0.102-0.007,0.172,0.103,0.133,0.198
				c-3.225,8.062-0.373,16.673,6.892,20.528C74.411,114.505,82.723,112.92,88.098,106.162z"/>
		</g>
	</g>
	<g>
		<g>
			<g>
				<path class="st1" d="M87.638,53.643c-1.491-2.029-2.936-4.028-4.595-5.927c-2.989-3.422-6.407-6.228-10.849-7.57
					c-2.439-0.737-4.947-1.067-7.472-1.3c-0.199-0.018-0.348-0.039-0.462-0.257c-1.319-2.519-2.049-5.159-1.706-8.029
					c0.027-0.224,0.063-0.446,0.105-0.723c0.009-0.057,0.079-0.08,0.12-0.04c0.599,0.59,1.17,1.12,1.793,1.589
					c2.083,1.569,4.375,2.636,7.017,2.742c3.516,0.141,6.534-1.948,7.77-5.311c1.006-2.738,0.964-5.516,0.293-8.314
					c-0.033-0.136-0.067-0.272-0.092-0.41c-0.012-0.064-0.003-0.146,0.049-0.132c1.037,0.303,1.966,0.826,2.845,1.432
					c1.621,1.117,2.875,2.578,3.92,4.236c0.172,0.274,0.063,0.46-0.037,0.678c-0.858,1.872-1.618,3.779-2.196,5.76
					c-1.168,4.004-0.991,7.995,0.055,11.987c0.819,3.125,2.088,6.081,3.384,9.028c0.071,0.16,0.133,0.324,0.199,0.486
					C87.824,53.683,87.692,53.734,87.638,53.643z"/>
				<path class="st1" d="M93.645,16.917c0.062-0.175,0.31-0.177,0.373-0.003c1.364,3.759,3.221,7.139,4.764,10.658
					c1.018,2.32,1.974,4.664,2.328,7.2c0,0.001,0,0.001,0,0.002c0.021,0.154-0.136,0.269-0.279,0.206
					c-4.657-2.056-9.282-2.055-13.933,0.024c-0.142,0.064-0.298-0.056-0.277-0.211c0.256-1.875,0.82-3.546,1.464-5.195
					c1.21-3.098,2.751-6.046,4.105-9.079C92.706,19.369,93.187,18.203,93.645,16.917z"/>
				<path class="st1" d="M94.135,59.841c-0.085,0.206-0.378,0.203-0.459-0.004c-0.189-0.483-0.372-0.956-0.573-1.421
					c-1.337-3.095-2.694-6.182-4.019-9.283c-0.4-0.935-0.706-1.91-1.084-2.856c-0.134-0.337-0.073-0.477,0.269-0.608
					c3.743-1.425,7.482-1.433,11.23-0.018c0.354,0.134,0.373,0.281,0.261,0.612c-1.147,3.383-2.684,6.603-4.088,9.88
					C95.146,57.371,94.649,58.61,94.135,59.841L94.135,59.841z"/>
			</g>
			<path class="st1" d="M60.667,38.484c0.039,0.099-0.038,0.205-0.144,0.198c-2.501-0.168-4.926-0.416-7.326-0.895
				c-0.323-0.064-0.314-0.269-0.35-0.487c-0.567-3.498-0.468-6.979,0.29-10.437c0.91-4.15,2.634-7.915,5.522-11.067
				c4.412-4.815,9.974-6.888,16.428-6.55c5.902,0.309,11.107,2.498,15.702,6.185c0.227,0.182,0.277,0.332,0.182,0.616
				c-0.777,2.309-1.788,4.516-2.853,6.7c0,0.001-0.001,0.001-0.001,0.002c-0.045,0.092-0.175,0.097-0.239,0.016
				c-5.369-6.824-14.252-8.66-21.224-4.295C60.284,22.46,57.502,30.451,60.667,38.484z"/>
		</g>
		<g>
			<g>
				<path class="st1" d="M100.029,53.51c1.012-2.306,2.02-4.557,2.835-6.943c1.469-4.3,2.19-8.662,1.131-13.181
					c-0.581-2.481-1.549-4.817-2.61-7.121c-0.084-0.181-0.14-0.321-0.008-0.529c1.522-2.402,3.443-4.354,6.1-5.492
					c0.207-0.089,0.418-0.169,0.679-0.271c0.054-0.021,0.109,0.028,0.094,0.084c-0.211,0.814-0.385,1.573-0.48,2.347
					c-0.317,2.588-0.095,5.107,1.134,7.448c1.636,3.115,4.954,4.685,8.485,4.073c2.874-0.498,5.259-1.923,7.347-3.903
					c0.102-0.096,0.203-0.194,0.309-0.285c0.05-0.042,0.125-0.076,0.139-0.024c0.256,1.05,0.268,2.115,0.182,3.18
					c-0.157,1.962-0.795,3.779-1.708,5.513c-0.151,0.286-0.367,0.284-0.606,0.307c-2.05,0.192-4.082,0.488-6.086,0.978
					c-4.051,0.991-7.42,3.14-10.353,6.041c-2.297,2.272-4.223,4.849-6.126,7.444c-0.104,0.141-0.214,0.277-0.322,0.415
					C100.087,53.691,99.978,53.602,100.029,53.51z"/>
				<path class="st1" d="M134.838,40.349c0.183-0.034,0.308,0.18,0.189,0.322c-2.574,3.061-4.572,6.359-6.848,9.455
					c-1.5,2.042-3.052,4.042-5.072,5.617c-0.001,0-0.001,0.001-0.002,0.001c-0.123,0.095-0.301,0.016-0.318-0.138
					c-0.548-5.061-2.861-9.066-6.988-12.054c-0.126-0.091-0.1-0.286,0.044-0.345c1.752-0.716,3.481-1.063,5.231-1.33
					c3.288-0.502,6.612-0.641,9.915-0.985C132.245,40.762,133.496,40.596,134.838,40.349z"/>
				<path class="st1" d="M97.91,62.236c-0.221,0.029-0.365-0.226-0.226-0.4c0.324-0.405,0.642-0.8,0.944-1.207
					c2.012-2.706,4.007-5.424,6.029-8.122c0.61-0.814,1.301-1.567,1.931-2.367c0.224-0.285,0.377-0.302,0.661-0.071
					c3.106,2.53,4.982,5.763,5.63,9.717c0.061,0.373-0.057,0.463-0.4,0.532c-3.503,0.698-7.061,0.977-10.6,1.4
					C100.555,61.876,99.233,62.065,97.91,62.236L97.91,62.236z"/>
			</g>
			<path class="st1" d="M99.671,22.573c-0.066,0.083-0.196,0.07-0.243-0.026c-1.105-2.25-2.103-4.474-2.888-6.792
				c-0.106-0.312,0.076-0.407,0.247-0.546c2.745-2.24,5.81-3.895,9.184-4.967c4.049-1.287,8.171-1.676,12.345-0.751
				c6.376,1.413,10.952,5.194,13.886,10.952c2.683,5.265,3.39,10.868,2.494,16.691c-0.044,0.288-0.149,0.406-0.443,0.465
				c-2.388,0.482-4.805,0.709-7.229,0.879c-0.001,0-0.001,0-0.002,0c-0.102,0.007-0.172-0.103-0.133-0.198
				c3.225-8.062,0.373-16.673-6.892-20.528C113.358,14.229,105.046,15.815,99.671,22.573z"/>
		</g>
	</g>
	<g>
		<g>
			<path class="st1" d="M106.386,64.234c2.503-0.277,4.956-0.529,7.43-1.016c4.458-0.878,8.597-2.435,11.981-5.611
				c1.858-1.744,3.397-3.75,4.862-5.821c0.115-0.163,0.208-0.282,0.454-0.272c2.841,0.117,5.492,0.805,7.806,2.537
				c0.18,0.135,0.355,0.278,0.574,0.452c0.045,0.036,0.03,0.109-0.026,0.124c-0.81,0.224-1.555,0.453-2.273,0.758
				c-2.4,1.02-4.47,2.471-5.883,4.706c-1.88,2.974-1.58,6.633,0.715,9.385c1.868,2.24,4.295,3.593,7.054,4.411
				c0.134,0.04,0.269,0.078,0.401,0.125c0.062,0.022,0.128,0.07,0.09,0.108c-0.781,0.746-1.698,1.29-2.663,1.748
				c-1.778,0.845-3.67,1.201-5.628,1.277c-0.323,0.013-0.43-0.175-0.569-0.371c-1.192-1.679-2.464-3.291-3.89-4.782
				c-2.884-3.013-6.429-4.856-10.408-5.946c-3.116-0.854-6.31-1.233-9.51-1.583c-0.174-0.019-0.347-0.047-0.521-0.071
				C106.258,64.375,106.28,64.236,106.386,64.234z"/>
			<path class="st1" d="M135.187,87.799c0.12,0.141-0.001,0.357-0.184,0.325c-3.938-0.698-7.793-0.78-11.612-1.203
				c-2.518-0.279-5.026-0.622-7.4-1.584c-0.001,0-0.001-0.001-0.002-0.001c-0.144-0.059-0.165-0.253-0.039-0.344
				c4.109-3.005,6.42-7.011,6.945-12.079c0.016-0.155,0.197-0.23,0.321-0.134c1.496,1.16,2.661,2.483,3.767,3.865
				c2.078,2.597,3.861,5.406,5.811,8.095C133.534,85.76,134.303,86.76,135.187,87.799z"/>
			<path class="st1" d="M97.769,66.762c-0.136-0.177,0.013-0.429,0.233-0.396c0.512,0.078,1.014,0.156,1.517,0.214
				c3.349,0.389,6.701,0.758,10.049,1.16c1.01,0.121,2.007,0.344,3.015,0.489c0.359,0.052,0.45,0.176,0.392,0.537
				c-0.638,3.954-2.5,7.196-5.6,9.734c-0.293,0.24-0.43,0.182-0.66-0.08c-2.356-2.685-4.376-5.626-6.512-8.48
				C99.403,68.873,98.579,67.823,97.769,66.762L97.769,66.762z"/>
		</g>
		<path class="st1" d="M132.999,48.456c-0.105-0.016-0.159-0.135-0.1-0.223c1.396-2.082,2.824-4.058,4.438-5.897
			c0.217-0.247,0.39-0.138,0.597-0.059c3.313,1.258,6.278,3.084,8.894,5.47c3.139,2.863,5.537,6.238,6.823,10.315
			c1.964,6.228,0.978,12.082-2.542,17.501c-3.218,4.956-7.717,8.37-13.208,10.506c-0.271,0.105-0.426,0.074-0.624-0.151
			c-1.611-1.827-3.017-3.806-4.376-5.821c0-0.001-0.001-0.001-0.001-0.002c-0.057-0.085,0.004-0.2,0.105-0.215
			c8.594-1.238,14.626-8.013,14.332-16.233C147.068,56.137,141.539,49.732,132.999,48.456z"/>
	</g>
	<g>
		<g>
			<path class="st1" d="M81.542,64.427c-2.503,0.277-4.956,0.529-7.43,1.016c-4.458,0.878-8.597,2.435-11.981,5.611
				c-1.858,1.744-3.397,3.75-4.862,5.821c-0.115,0.163-0.208,0.282-0.454,0.272c-2.841-0.117-5.492-0.805-7.806-2.537
				c-0.18-0.135-0.355-0.278-0.574-0.452c-0.045-0.036-0.03-0.109,0.026-0.124c0.81-0.224,1.555-0.453,2.273-0.758
				c2.4-1.02,4.47-2.471,5.883-4.706c1.88-2.974,1.58-6.633-0.715-9.385c-1.868-2.24-4.295-3.593-7.054-4.411
				c-0.134-0.04-0.269-0.078-0.401-0.125c-0.062-0.022-0.128-0.07-0.09-0.108c0.781-0.746,1.698-1.29,2.663-1.748
				c1.778-0.845,3.67-1.201,5.628-1.277c0.323-0.013,0.43,0.175,0.569,0.371c1.192,1.679,2.464,3.291,3.89,4.782
				c2.884,3.013,6.429,4.856,10.408,5.946c3.116,0.854,6.31,1.233,9.51,1.583c0.174,0.019,0.347,0.047,0.521,0.071
				C81.67,64.286,81.648,64.425,81.542,64.427z"/>
			<path class="st1" d="M52.741,40.862c-0.12-0.141,0.001-0.357,0.184-0.325c3.938,0.698,7.793,0.78,11.612,1.203
				c2.518,0.279,5.026,0.622,7.4,1.584c0.001,0,0.001,0.001,0.002,0.001c0.144,0.059,0.165,0.253,0.039,0.344
				c-4.109,3.005-6.421,7.011-6.945,12.079c-0.016,0.155-0.197,0.23-0.321,0.134c-1.496-1.16-2.661-2.483-3.767-3.865
				c-2.078-2.597-3.861-5.406-5.811-8.095C54.394,42.901,53.625,41.901,52.741,40.862z"/>
			<path class="st1" d="M90.159,61.899c0.136,0.177-0.013,0.429-0.233,0.396c-0.512-0.078-1.014-0.156-1.517-0.214
				c-3.349-0.389-6.701-0.758-10.049-1.16c-1.01-0.121-2.007-0.344-3.015-0.489c-0.359-0.052-0.45-0.176-0.392-0.537
				c0.638-3.954,2.5-7.196,5.6-9.734c0.293-0.24,0.43-0.182,0.66,0.08c2.356,2.685,4.376,5.626,6.512,8.48
				C88.525,59.788,89.349,60.839,90.159,61.899L90.159,61.899z"/>
		</g>
		<path class="st1" d="M54.929,80.205c0.105,0.016,0.159,0.135,0.1,0.223c-1.396,2.082-2.824,4.058-4.438,5.897
			c-0.217,0.247-0.39,0.138-0.597,0.059c-3.313-1.258-6.278-3.084-8.894-5.47c-3.139-2.863-5.537-6.238-6.823-10.315
			c-1.964-6.228-0.978-12.082,2.542-17.501c3.218-4.956,7.717-8.37,13.208-10.506c0.271-0.105,0.426-0.074,0.624,0.151
			c1.611,1.827,3.017,3.806,4.376,5.821c0,0.001,0.001,0.001,0.001,0.002c0.057,0.085-0.004,0.2-0.105,0.215
			c-8.594,1.238-14.626,8.013-14.332,16.233C40.86,72.524,46.389,78.929,54.929,80.205z"/>
	</g>
</g>
</svg>
