<?xml version="1.0" encoding="utf-8"?>
<!-- Generator: Adobe Illustrator 25.0.0, SVG Export Plug-In . SVG Version: 6.00 Build 0)  -->
<svg version="1.1" id="Layer_1" xmlns="http://www.w3.org/2000/svg" xmlns:xlink="http://www.w3.org/1999/xlink" x="0px" y="0px"
	 viewBox="0 0 380 85" style="enable-background:new 0 0 380 85;" xml:space="preserve">
<style type="text/css">
	.st0{enable-background:new    ;}
	.st1{fill:#0FD297;}
	.st2{fill:#FFFFFF;}
	.st3{clip-path:url(#SVGID_2_);fill:#F0B90B;}
	.st4{clip-path:url(#SVGID_4_);}
	.st5{clip-path:url(#SVGID_6_);fill:#F0B90B;}
</style>
<g class="st0">
	<path class="st1" d="M99,27.2c0-1-0.6-1.5-1.5-1.5h-2.9v-5.8h6.5c3.1,0,4.5,1.3,4.5,3.9v1.3c0,1.1-0.1,2-0.1,2h0.1
		c1.7-4.1,6.6-8.1,12.1-8.1c6,0,9.5,2.7,10.6,8.1h0.1c2-4.3,6.9-8.1,12.6-8.1c8,0,11.7,4.6,11.7,13.6v15.3c0,1,0.6,1.5,1.5,1.5h2.9
		v5.8h-6.7c-3.2,0-4.5-1.3-4.5-4.5V34.1c0-5-1-8.9-6.2-8.9c-4.9,0-8.7,4.3-9.9,9.1c-0.3,1.5-0.6,3-0.6,4.8v16.2h-6.8V34.1
		c0-4.6-0.7-8.9-6.1-8.9c-5.2,0-8.8,4.3-10.2,9.4c-0.4,1.4-0.5,2.9-0.5,4.6v16.2H99V27.2z"/>
	<path class="st1" d="M182.6,33.2h1.5v-0.3c0-6.2-2.3-8.5-7.8-8.5c-1.7,0-5.8,0.4-5.8,2.7v2h-6.4v-3.5c0-5.8,8.8-6.7,12.3-6.7
		c11.5,0,14.6,6,14.6,13.9v15.1c0,1,0.6,1.5,1.5,1.5h2.9v5.8H189c-3.1,0-4.4-1.5-4.4-4.1c0-1.2,0.1-2.1,0.1-2.1h-0.1
		c0,0-2.8,7-11.3,7c-6.1,0-12-3.7-12-10.8C161.2,33.9,176.6,33.2,182.6,33.2z M174.7,50.6c5.7,0,9.5-6,9.5-11.3v-1.2h-1.8
		c-5.1,0-14.4,0.3-14.4,6.8C168.1,47.8,170.3,50.6,174.7,50.6z"/>
	<path class="st1" d="M202.7,27.2c0-1-0.6-1.5-1.5-1.5h-2.9v-5.8h6.5c3,0,4.5,1.3,4.5,3.9v1.3c0,1.1-0.1,2-0.1,2h0.1
		c1.4-3.1,5.6-8.1,13.3-8.1c8.4,0,12.2,4.6,12.2,13.6v15.3c0,1,0.6,1.5,1.5,1.5h2.9v5.8h-6.7c-3.2,0-4.5-1.3-4.5-4.5V34.1
		c0-5-1-8.9-6.7-8.9c-5.5,0-9.8,3.6-11.2,8.7c-0.5,1.4-0.6,3-0.6,4.8v16.6h-6.8V27.2z"/>
	<path class="st1" d="M259.2,19c8.2,0,10.9,5.5,10.9,5.5h0.1c0,0-0.1-1.1-0.1-2.4v-8.9c0-1.1-0.6-1.5-1.5-1.5h-2.9V5.8h6.7
		c3.2,0,4.5,1.3,4.5,4.5v37.6c0,1,0.6,1.5,1.5,1.5h2.9v5.8h-6.5c-3.1,0-4.3-1.4-4.3-3.8c0-1,0.1-1.8,0.1-1.8h-0.1
		c0,0-2.9,6.4-11.6,6.4c-9.6,0-15.6-7.6-15.6-18.6C243.1,26.3,249.8,19,259.2,19z M270.3,37.5c0-6.3-3.3-12.6-10.1-12.6
		c-5.5,0-10.2,4.6-10.2,12.7c0,7.7,4.1,12.7,10,12.7C265.3,50.2,270.3,46.5,270.3,37.5z"/>
	<path class="st1" d="M306.8,33.2h1.5v-0.3c0-6.2-2.3-8.5-7.8-8.5c-1.7,0-5.8,0.4-5.8,2.7v2h-6.4v-3.5c0-5.8,8.8-6.7,12.3-6.7
		c11.5,0,14.6,6,14.6,13.9v15.1c0,1,0.6,1.5,1.5,1.5h2.9v5.8h-6.4c-3.2,0-4.4-1.5-4.4-4.1c0-1.2,0.1-2.1,0.1-2.1h-0.1
		c0,0-2.8,7-11.3,7c-6.1,0-12-3.7-12-10.8C285.5,33.9,300.9,33.2,306.8,33.2z M299,50.6c5.7,0,9.5-6,9.5-11.3v-1.2h-1.8
		c-5.1,0-14.4,0.3-14.4,6.8C292.3,47.8,294.5,50.6,299,50.6z"/>
	<path class="st1" d="M326.8,13.2c0-1.1-0.6-1.5-1.5-1.5h-2.9V5.8h6.7c3.2,0,4.5,1.3,4.5,4.5v37.6c0,1,0.6,1.5,1.5,1.5h2.9v5.8h-6.7
		c-3.2,0-4.5-1.3-4.5-4.5V13.2z"/>
	<path class="st1" d="M363.7,33.2h1.5v-0.3c0-6.2-2.3-8.5-7.8-8.5c-1.7,0-5.8,0.4-5.8,2.7v2h-6.4v-3.5c0-5.8,8.8-6.7,12.3-6.7
		c11.5,0,14.6,6,14.6,13.9v15.1c0,1,0.6,1.5,1.5,1.5h2.9v5.8H370c-3.1,0-4.4-1.5-4.4-4.1c0-1.2,0.1-2.1,0.1-2.1h-0.1
		c0,0-2.8,7-11.3,7c-6.1,0-12-3.7-12-10.8C342.3,33.9,357.7,33.2,363.7,33.2z M355.8,50.6c5.7,0,9.5-6,9.5-11.3v-1.2h-1.8
		c-5.1,0-14.4,0.3-14.4,6.8C349.2,47.8,351.3,50.6,355.8,50.6z"/>
</g>
<g class="st0">
	<path class="st2" d="M97.3,67.1h-1.2v-1.6h5.9c2.5,0,4.2,1.7,4.2,4.2S104.5,74,102,74h-2.8v5h-1.9V67.1z M101.7,72.3
		c1.6,0,2.5-1,2.5-2.6s-1-2.6-2.5-2.6h-2.5v5.2H101.7z"/>
	<path class="st2" d="M112.1,69.1c2.9,0,5.2,2.1,5.2,5s-2.3,5.1-5.2,5.1c-2.9,0-5.2-2.1-5.2-5.1C106.9,71.2,109.2,69.1,112.1,69.1z
		 M112.1,77.5c1.8,0,3.3-1.4,3.3-3.5c0-2-1.5-3.4-3.3-3.4s-3.3,1.4-3.3,3.4C108.8,76.1,110.3,77.5,112.1,77.5z"/>
	<path class="st2" d="M118.8,71.3c-0.1-0.3-0.3-0.4-0.6-0.4H118v-1.6h1.2c0.9,0,1.2,0.2,1.4,1l1.7,5.7c0.2,0.5,0.2,1,0.2,1l0,0
		c0,0,0.1-0.5,0.3-1l2.1-6.7h1.7l2.1,6.7c0.2,0.5,0.2,1,0.2,1l0,0c0,0,0.1-0.5,0.2-1l1.7-5.7c0.2-0.8,0.6-1,1.4-1h1.1v1.6H133
		c-0.3,0-0.5,0.1-0.6,0.4l-2.5,7.7H128l-2-6.2c-0.2-0.5-0.3-1-0.3-1l0,0c0,0-0.1,0.6-0.3,1l-2,6.2h-2.1L118.8,71.3z"/>
	<path class="st2" d="M138.9,69.1c2.7,0,4.1,2,4.1,4.5c0,0.2-0.1,0.8-0.1,0.8h-7c0.1,2.1,1.6,3.2,3.3,3.2s2.8-1.1,2.8-1.1l0.8,1.3
		c0,0-1.4,1.4-3.7,1.4c-3,0-5.1-2.2-5.1-5C134.1,71,136.2,69.1,138.9,69.1z M141.2,73c-0.1-1.6-1.1-2.5-2.3-2.5
		c-1.4,0-2.5,0.9-2.8,2.5H141.2z"/>
	<path class="st2" d="M145.5,71.3c0-0.3-0.2-0.4-0.4-0.4h-0.8v-1.6h1.7c0.8,0,1.2,0.3,1.2,1.1V71c0,0.4,0,0.7,0,0.7l0,0
		c0.5-1.4,1.6-2.5,3-2.5c0.2,0,0.5,0,0.5,0V71c0,0-0.2-0.1-0.6-0.1c-1.2,0-2.3,0.8-2.7,2.3c-0.2,0.6-0.2,1.1-0.2,1.7v3.9h-1.8v-7.5
		H145.5z"/>
	<path class="st2" d="M156.4,69.1c2.7,0,4.1,2,4.1,4.5c0,0.2-0.1,0.8-0.1,0.8h-7c0.1,2.1,1.6,3.2,3.3,3.2s2.8-1.1,2.8-1.1l0.8,1.3
		c0,0-1.4,1.4-3.7,1.4c-3,0-5.1-2.2-5.1-5C151.6,71,153.7,69.1,156.4,69.1z M158.6,73c-0.1-1.6-1.1-2.5-2.3-2.5
		c-1.4,0-2.5,0.9-2.8,2.5H158.6z"/>
	<path class="st2" d="M166.4,69.1c2.2,0,3,1.5,3,1.5l0,0c0,0,0-0.3,0-0.6v-2.4c0-0.3-0.2-0.4-0.4-0.4h-0.8v-1.6h1.8
		c0.9,0,1.2,0.4,1.2,1.2V77c0,0.3,0.2,0.4,0.4,0.4h0.8V79h-1.8c-0.8,0-1.2-0.4-1.2-1c0-0.3,0-0.5,0-0.5l0,0c0,0-0.8,1.7-3.2,1.7
		c-2.6,0-4.2-2.1-4.2-5C162.1,71,163.9,69.1,166.4,69.1z M169.5,74.1c0-1.7-0.9-3.4-2.7-3.4c-1.5,0-2.8,1.3-2.8,3.4s1.1,3.4,2.7,3.4
		C168.1,77.5,169.5,76.5,169.5,74.1z"/>
	<path class="st2" d="M179.5,67.5c0-0.3-0.2-0.4-0.4-0.4h-0.8v-1.6h1.8c0.9,0,1.2,0.4,1.2,1.2v3.1c0,0.5,0,0.8,0,0.8l0,0
		c0,0,0.8-1.6,3.1-1.6c2.6,0,4.2,2.1,4.2,5c0,3.1-1.8,5-4.4,5c-2.1,0-3-1.6-3-1.6l0,0c0,0,0,0.3,0,0.7v0.7h-1.8V67.5H179.5z
		 M184,77.6c1.5,0,2.8-1.3,2.8-3.4s-1.1-3.4-2.7-3.4c-1.4,0-2.8,1-2.8,3.5C181.3,75.9,182.2,77.6,184,77.6z"/>
	<path class="st2" d="M191.5,81.3c0.7,0,1.3-0.5,1.7-1.4l0.4-1l-3.3-7.6c-0.1-0.3-0.3-0.4-0.6-0.4h-0.2v-1.6h1.1
		c0.8,0,1.1,0.2,1.4,1l2.2,5.4c0.2,0.5,0.3,1.2,0.3,1.2l0,0c0,0,0.1-0.7,0.3-1.2l2-5.4c0.3-0.8,0.6-1,1.4-1h1.1v1.6h-0.2
		c-0.3,0-0.5,0.1-0.6,0.4l-3.8,9.4c-0.6,1.5-1.7,2.3-3.1,2.3c-1.4,0-2.3-1-2.3-1l0.8-1.3C190.1,80.6,190.6,81.3,191.5,81.3z"/>
</g>
<g>
	<g>
		<g>
			<g>
				<g>
					<g>
						<defs>
							<rect id="SVGID_1_" x="210.4" y="63.5" width="168.2" height="21.2"/>
						</defs>
						<clipPath id="SVGID_2_">
							<use xlink:href="#SVGID_1_"  style="overflow:visible;"/>
						</clipPath>
						<path class="st3" d="M220.7,79.4l-4-4l-2.3,2.3l6.3,6.3l6.3-6.3l-2.3-2.3L220.7,79.4z M210.4,73.8l2.3,2.3l2.3-2.3l-2.3-2.3
							L210.4,73.8z M218.4,73.8l2.3,2.3l2.3-2.3l-2.3-2.3L218.4,73.8z M226.3,73.8l2.3,2.3l2.3-2.3l-2.3-2.3L226.3,73.8z
							 M220.7,63.5l-6.3,6.3l2.3,2.3l4-4l4,4l2.3-2.3L220.7,63.5z"/>
					</g>
				</g>
			</g>
		</g>
		<g>
			<g>
				<g>
					<g>
						<defs>
							<rect id="SVGID_3_" x="210.4" y="63.5" width="168.2" height="21.2"/>
						</defs>
						<clipPath id="SVGID_4_">
							<use xlink:href="#SVGID_3_"  style="overflow:visible;"/>
						</clipPath>
						<g class="st4">
							<g>
								<g>
									<g>
										<g>
											<defs>
												<rect id="SVGID_5_" x="210.4" y="63.5" width="168.2" height="21.2"/>
											</defs>
											<clipPath id="SVGID_6_">
												<use xlink:href="#SVGID_5_"  style="overflow:visible;"/>
											</clipPath>
											<path class="st5" d="M245.2,76L245.2,76c0-1.5-0.8-2.3-2.1-2.8c0.8-0.5,1.5-1.2,1.5-2.4l0,0c0-1.8-1.4-2.9-3.7-2.9h-5.2
												v11.3h5.4C243.5,79.1,245.2,78.1,245.2,76L245.2,76z M242.1,71.2c0,0.8-0.7,1.2-1.8,1.2H238V70h2.4
												C241.5,70,242.1,70.4,242.1,71.2L242.1,71.2z M242.7,75.7c0,0.8-0.7,1.2-1.8,1.2H238v-2.5h2.9
												C242.2,74.4,242.7,74.9,242.7,75.7L242.7,75.7z M250.4,79.1V67.8h-2.5v11.3L250.4,79.1z M263.7,79.1V67.8h-2.4v6.9
												l-5.3-6.9h-2.3v11.3h2.4v-7.2l5.5,7.2L263.7,79.1z M277.4,79.1l-4.8-11.3h-2.3l-4.8,11.3h2.5l1-2.5h4.8l1,2.5H277.4z
												 M272.9,74.4h-3l1.5-3.7L272.9,74.4z M289.2,79.1V67.8h-2.4v6.9l-5.3-6.9h-2.3v11.3h2.4v-7.2l5.5,7.2L289.2,79.1z
												 M302,77.3l-1.6-1.6c-0.9,0.8-1.7,1.3-3,1.3c-1.9,0-3.3-1.6-3.3-3.5l0,0c0-1.9,1.4-3.5,3.3-3.5c1.1,0,2,0.5,2.9,1.3
												l1.6-1.8c-1.1-1-2.3-1.7-4.4-1.7c-3.5,0-5.9,2.6-5.9,5.8l0,0c0,3.2,2.5,5.8,5.8,5.8C299.6,79.3,300.9,78.5,302,77.3
												 M312.6,79.1v-2.2h-6.1v-2.4h5.3v-2.2h-5.3V70h6v-2.2H304v11.3L312.6,79.1z M325.4,79.3c-3.3,0-5.8-2.6-5.8-5.8
												c0-3.2,2.4-5.9,5.8-5.9c2.1,0,3.3,0.7,4.4,1.8l-1.3,1.5c-0.9-0.8-1.9-1.4-3.2-1.4c-2.2,0-3.7,1.8-3.7,4s1.6,4,3.7,4
												c1.4,0,2.3-0.6,3.2-1.5l1.3,1.3C328.8,78.5,327.5,79.3,325.4,79.3L325.4,79.3z M332.2,67.8h2v9.5h5.9v1.8h-7.9V67.8z
												 M347.2,79.3c-3.5,0-5.9-2.6-5.9-5.8s2.5-5.9,5.9-5.9c3.5,0,5.9,2.6,5.9,5.8C353.2,76.6,350.7,79.3,347.2,79.3
												L347.2,79.3z M347.2,69.4c-2.2,0-3.8,1.8-3.8,4s1.6,4,3.8,4c2.2,0,3.8-1.8,3.8-4S349.5,69.4,347.2,69.4L347.2,69.4z
												 M365.3,74.2c0,3.4-1.9,5.1-4.9,5.1s-4.8-1.7-4.8-5v-6.5h2v6.4c0,2.1,1.1,3.2,2.9,3.2s2.8-1.1,2.8-3.1v-6.5h2V74.2z
												 M372.6,79.1h-4.2V67.8h4.2c3.6,0,6,2.4,6,5.6S376.2,79.1,372.6,79.1 M372.6,69.6h-2.2v7.7h2.2c2.4,0,3.9-1.6,3.9-3.8
												S375,69.6,372.6,69.6"/>
										</g>
									</g>
								</g>
							</g>
						</g>
					</g>
				</g>
			</g>
		</g>
	</g>
</g>
<g>
	<g>
		<g>
			<g>
				<path class="st1" d="M47.275,49.966c1.041,1.417,2.051,2.814,3.21,4.14c2.088,2.39,4.475,4.35,7.579,5.288
					c1.704,0.515,3.455,0.745,5.219,0.908c0.139,0.013,0.243,0.027,0.323,0.18c0.922,1.759,1.431,3.604,1.192,5.608
					c-0.019,0.156-0.044,0.312-0.073,0.505c-0.006,0.04-0.055,0.056-0.084,0.028c-0.419-0.412-0.817-0.783-1.252-1.11
					c-1.455-1.096-3.056-1.841-4.901-1.915c-2.456-0.099-4.564,1.361-5.428,3.71c-0.703,1.913-0.673,3.853-0.205,5.808
					c0.023,0.095,0.047,0.19,0.064,0.287c0.008,0.045,0.002,0.102-0.034,0.092c-0.724-0.212-1.373-0.577-1.988-1
					c-1.132-0.781-2.008-1.801-2.738-2.959c-0.12-0.191-0.044-0.321,0.026-0.474c0.6-1.308,1.13-2.64,1.534-4.024
					c0.816-2.797,0.692-5.585-0.038-8.373c-0.572-2.183-1.458-4.248-2.364-6.306c-0.049-0.112-0.093-0.226-0.139-0.34
					C47.145,49.938,47.237,49.903,47.275,49.966z"/>
				<path class="st1" d="M43.079,75.621c-0.044,0.122-0.216,0.124-0.261,0.002c-0.953-2.626-2.25-4.987-3.328-7.445
					c-0.711-1.621-1.379-3.258-1.626-5.03c0,0,0-0.001,0-0.001c-0.015-0.108,0.095-0.188,0.195-0.144
					c3.253,1.436,6.484,1.436,9.733-0.017c0.099-0.044,0.208,0.039,0.193,0.147c-0.179,1.31-0.573,2.477-1.022,3.629
					c-0.845,2.164-1.922,4.224-2.867,6.342C43.735,73.908,43.399,74.723,43.079,75.621z"/>
				<path class="st1" d="M42.736,45.636c0.059-0.144,0.264-0.142,0.321,0.003c0.132,0.337,0.26,0.668,0.4,0.993
					c0.934,2.162,1.882,4.319,2.808,6.484c0.279,0.653,0.493,1.334,0.757,1.995c0.094,0.235,0.051,0.334-0.188,0.424
					c-2.615,0.995-5.226,1.001-7.845,0.012c-0.247-0.093-0.26-0.197-0.182-0.428c0.801-2.363,1.875-4.613,2.855-6.901
					C42.03,47.362,42.378,46.497,42.736,45.636L42.736,45.636z"/>
			</g>
			<path class="st1" d="M66.116,60.555c-0.027-0.069,0.026-0.143,0.1-0.138c1.747,0.118,3.441,0.291,5.118,0.625
				c0.225,0.045,0.22,0.188,0.244,0.34c0.396,2.443,0.327,4.875-0.203,7.291c-0.636,2.899-1.84,5.529-3.857,7.73
				c-3.082,3.363-6.967,4.811-11.475,4.575c-4.123-0.216-7.759-1.745-10.969-4.321c-0.159-0.127-0.194-0.232-0.127-0.43
				c0.542-1.613,1.249-3.154,1.993-4.681c0,0,0-0.001,0.001-0.001c0.032-0.064,0.122-0.068,0.167-0.011
				c3.751,4.767,9.956,6.049,14.826,3C66.383,71.749,68.326,66.167,66.116,60.555z"/>
		</g>
		<g>
			<g>
				<path class="st1" d="M38.619,50.059c-0.707,1.611-1.411,3.183-1.981,4.85c-1.026,3.004-1.53,6.051-0.79,9.208
					c0.406,1.733,1.082,3.365,1.823,4.974c0.058,0.127,0.098,0.224,0.006,0.37c-1.063,1.678-2.405,3.041-4.261,3.836
					c-0.145,0.062-0.292,0.118-0.474,0.189c-0.038,0.015-0.076-0.02-0.066-0.059c0.148-0.569,0.269-1.099,0.335-1.64
					c0.221-1.808,0.066-3.567-0.792-5.202c-1.143-2.176-3.461-3.273-5.927-2.845c-2.008,0.348-3.673,1.343-5.132,2.727
					c-0.071,0.067-0.142,0.136-0.216,0.199c-0.035,0.03-0.087,0.053-0.097,0.017c-0.179-0.733-0.187-1.478-0.127-2.221
					c0.11-1.371,0.556-2.64,1.193-3.851c0.105-0.2,0.256-0.199,0.423-0.214c1.432-0.134,2.852-0.341,4.252-0.683
					c2.83-0.692,5.183-2.193,7.232-4.22c1.605-1.587,2.95-3.387,4.279-5.2c0.072-0.099,0.15-0.193,0.225-0.29
					C38.579,49.932,38.655,49.994,38.619,50.059z"/>
				<path class="st1" d="M14.304,59.252c-0.128,0.023-0.215-0.126-0.132-0.225c1.798-2.138,3.194-4.442,4.784-6.605
					c1.048-1.426,2.132-2.823,3.543-3.923c0,0,0.001-0.001,0.001-0.001c0.086-0.067,0.21-0.011,0.222,0.096
					c0.382,3.535,1.999,6.333,4.881,8.42c0.088,0.064,0.07,0.2-0.031,0.241c-1.224,0.5-2.431,0.742-3.654,0.929
					c-2.297,0.35-4.619,0.447-6.926,0.688C16.115,58.964,15.241,59.08,14.304,59.252z"/>
				<path class="st1" d="M40.1,43.963c0.154-0.021,0.255,0.158,0.158,0.279c-0.226,0.283-0.448,0.559-0.66,0.843
					c-1.405,1.89-2.799,3.789-4.212,5.674c-0.426,0.569-0.909,1.094-1.349,1.653c-0.157,0.199-0.263,0.211-0.462,0.049
					c-2.169-1.767-3.48-4.026-3.933-6.787c-0.043-0.261,0.04-0.324,0.279-0.371c2.447-0.488,4.932-0.682,7.404-0.978
					C38.252,44.215,39.175,44.083,40.1,43.963L40.1,43.963z"/>
			</g>
			<path class="st1" d="M38.869,71.67c0.046-0.058,0.137-0.049,0.17,0.018c0.772,1.572,1.469,3.126,2.018,4.745
				c0.074,0.218-0.053,0.284-0.173,0.382c-1.918,1.565-4.059,2.721-6.416,3.47c-2.829,0.899-5.708,1.171-8.623,0.525
				c-4.454-0.987-7.65-3.628-9.7-7.65c-1.874-3.678-2.368-7.592-1.743-11.66c0.031-0.201,0.104-0.284,0.309-0.325
				c1.668-0.336,3.356-0.495,5.05-0.614c0,0,0.001,0,0.001,0c0.071-0.005,0.12,0.072,0.093,0.139
				c-2.253,5.632-0.261,11.647,4.814,14.34C29.309,77.498,35.115,76.39,38.869,71.67z"/>
		</g>
	</g>
	<g>
		<g>
			<g>
				<path class="st1" d="M38.548,34.983c-1.041-1.417-2.051-2.814-3.21-4.14c-2.088-2.39-4.475-4.35-7.579-5.288
					c-1.704-0.515-3.455-0.745-5.219-0.908c-0.139-0.013-0.243-0.027-0.323-0.18c-0.922-1.759-1.431-3.604-1.192-5.608
					c0.019-0.156,0.044-0.312,0.073-0.505c0.006-0.04,0.055-0.056,0.084-0.028c0.419,0.412,0.817,0.783,1.252,1.11
					c1.455,1.096,3.056,1.841,4.901,1.915c2.456,0.099,4.564-1.361,5.428-3.71c0.703-1.913,0.673-3.853,0.205-5.808
					c-0.023-0.095-0.047-0.19-0.064-0.287c-0.008-0.045-0.002-0.102,0.034-0.092c0.724,0.212,1.373,0.577,1.988,1
					c1.132,0.781,2.008,1.801,2.738,2.959c0.12,0.191,0.044,0.321-0.026,0.474c-0.6,1.308-1.13,2.64-1.534,4.024
					c-0.816,2.797-0.692,5.585,0.038,8.373c0.572,2.183,1.458,4.248,2.364,6.306c0.049,0.112,0.093,0.226,0.139,0.34
					C38.678,35.011,38.586,35.046,38.548,34.983z"/>
				<path class="st1" d="M42.744,9.328c0.044-0.122,0.216-0.124,0.261-0.002c0.953,2.626,2.25,4.987,3.328,7.445
					c0.711,1.621,1.379,3.258,1.626,5.03c0,0,0,0.001,0,0.001c0.015,0.108-0.095,0.188-0.195,0.144
					c-3.253-1.436-6.484-1.436-9.733,0.017c-0.099,0.044-0.208-0.039-0.193-0.147c0.179-1.31,0.573-2.477,1.022-3.629
					c0.845-2.164,1.922-4.224,2.867-6.342C42.088,11.041,42.424,10.226,42.744,9.328z"/>
				<path class="st1" d="M43.087,39.313c-0.059,0.144-0.264,0.142-0.321-0.003c-0.132-0.337-0.26-0.668-0.4-0.993
					c-0.934-2.162-1.882-4.319-2.808-6.484c-0.279-0.653-0.493-1.334-0.757-1.995c-0.094-0.235-0.051-0.334,0.188-0.424
					c2.615-0.995,5.226-1.001,7.845-0.012c0.247,0.093,0.26,0.197,0.182,0.428c-0.801,2.363-1.875,4.613-2.855,6.901
					C43.793,37.587,43.445,38.452,43.087,39.313L43.087,39.313z"/>
			</g>
			<path class="st1" d="M19.707,24.394c0.027,0.069-0.026,0.143-0.1,0.138c-1.747-0.118-3.441-0.291-5.118-0.625
				c-0.225-0.045-0.22-0.188-0.244-0.34c-0.396-2.443-0.327-4.875,0.203-7.291c0.636-2.899,1.84-5.529,3.857-7.73
				c3.082-3.363,6.967-4.811,11.475-4.575c4.123,0.216,7.759,1.745,10.969,4.321c0.159,0.127,0.194,0.232,0.127,0.43
				c-0.542,1.613-1.249,3.154-1.993,4.681c0,0,0,0.001-0.001,0.001c-0.032,0.064-0.122,0.068-0.167,0.011
				c-3.751-4.767-9.956-6.049-14.826-3C19.44,13.2,17.497,18.782,19.707,24.394z"/>
		</g>
		<g>
			<g>
				<path class="st1" d="M47.204,34.89c0.707-1.611,1.411-3.183,1.981-4.85c1.026-3.004,1.53-6.051,0.79-9.208
					c-0.406-1.733-1.082-3.365-1.823-4.974c-0.058-0.127-0.098-0.224-0.006-0.37c1.063-1.678,2.405-3.041,4.261-3.836
					c0.145-0.062,0.292-0.118,0.474-0.189c0.038-0.015,0.076,0.02,0.066,0.059c-0.148,0.569-0.269,1.099-0.335,1.64
					c-0.221,1.808-0.066,3.567,0.792,5.202c1.143,2.176,3.461,3.273,5.927,2.845c2.008-0.348,3.673-1.343,5.132-2.727
					c0.071-0.067,0.142-0.136,0.216-0.199c0.035-0.03,0.087-0.053,0.097-0.017c0.179,0.733,0.187,1.478,0.127,2.221
					c-0.11,1.371-0.556,2.64-1.193,3.851c-0.105,0.2-0.256,0.199-0.423,0.214c-1.432,0.134-2.852,0.341-4.252,0.683
					c-2.83,0.692-5.183,2.193-7.232,4.22c-1.605,1.587-2.95,3.387-4.279,5.2c-0.072,0.099-0.15,0.193-0.225,0.29
					C47.244,35.017,47.168,34.955,47.204,34.89z"/>
				<path class="st1" d="M71.519,25.697c0.128-0.023,0.215,0.126,0.132,0.225c-1.798,2.138-3.194,4.442-4.784,6.605
					c-1.048,1.426-2.132,2.823-3.543,3.923c0,0-0.001,0.001-0.001,0.001c-0.086,0.067-0.21,0.011-0.222-0.096
					c-0.382-3.535-1.999-6.333-4.881-8.42c-0.088-0.064-0.07-0.2,0.031-0.241c1.224-0.5,2.431-0.742,3.654-0.929
					c2.297-0.35,4.619-0.447,6.926-0.688C69.708,25.985,70.582,25.869,71.519,25.697z"/>
				<path class="st1" d="M45.723,40.986c-0.154,0.021-0.255-0.158-0.158-0.279c0.226-0.283,0.448-0.559,0.66-0.843
					c1.405-1.89,2.799-3.789,4.212-5.674c0.426-0.569,0.909-1.094,1.349-1.653c0.157-0.199,0.263-0.211,0.462-0.049
					c2.169,1.767,3.48,4.026,3.933,6.787c0.043,0.261-0.04,0.324-0.279,0.371c-2.447,0.488-4.932,0.682-7.404,0.978
					C47.571,40.734,46.648,40.866,45.723,40.986L45.723,40.986z"/>
			</g>
			<path class="st1" d="M46.954,13.279c-0.046,0.058-0.137,0.049-0.17-0.018c-0.772-1.572-1.469-3.126-2.018-4.745
				c-0.074-0.218,0.053-0.284,0.173-0.382c1.918-1.565,4.059-2.721,6.416-3.47c2.829-0.899,5.708-1.171,8.623-0.525
				c4.454,0.987,7.65,3.628,9.7,7.65c1.874,3.678,2.368,7.592,1.743,11.66c-0.031,0.201-0.104,0.284-0.309,0.325
				c-1.668,0.336-3.356,0.495-5.05,0.614c0,0-0.001,0-0.001,0c-0.071,0.005-0.12-0.072-0.093-0.139
				c2.253-5.632,0.261-11.647-4.814-14.34C56.515,7.451,50.709,8.559,46.954,13.279z"/>
		</g>
	</g>
	<g>
		<g>
			<path class="st1" d="M51.644,42.382c1.748-0.193,3.462-0.369,5.19-0.71c3.114-0.613,6.005-1.701,8.369-3.919
				c1.298-1.218,2.373-2.62,3.396-4.066c0.081-0.114,0.145-0.197,0.317-0.19c1.984,0.082,3.837,0.562,5.453,1.772
				c0.126,0.094,0.248,0.194,0.401,0.316c0.032,0.025,0.021,0.076-0.018,0.087c-0.566,0.156-1.086,0.316-1.588,0.529
				c-1.677,0.712-3.123,1.726-4.109,3.287c-1.313,2.077-1.104,4.633,0.499,6.556c1.305,1.565,3,2.51,4.927,3.081
				c0.094,0.028,0.188,0.055,0.28,0.088c0.043,0.015,0.089,0.049,0.063,0.076c-0.546,0.521-1.186,0.901-1.86,1.221
				c-1.242,0.59-2.564,0.839-3.932,0.892c-0.226,0.009-0.3-0.122-0.397-0.259c-0.833-1.173-1.721-2.299-2.718-3.34
				c-2.014-2.105-4.491-3.392-7.271-4.153c-2.177-0.596-4.408-0.861-6.643-1.106c-0.122-0.013-0.242-0.033-0.364-0.05
				C51.555,42.48,51.57,42.383,51.644,42.382z"/>
			<path class="st1" d="M71.763,58.843c0.084,0.099-0.001,0.249-0.129,0.227c-2.751-0.488-5.444-0.545-8.112-0.84
				c-1.759-0.195-3.511-0.435-5.169-1.106c0,0-0.001,0-0.001-0.001c-0.101-0.041-0.115-0.176-0.027-0.241
				c2.87-2.099,4.485-4.897,4.852-8.437c0.011-0.108,0.138-0.161,0.224-0.094c1.045,0.81,1.859,1.734,2.631,2.7
				c1.452,1.814,2.697,3.776,4.059,5.654C70.609,57.418,71.146,58.117,71.763,58.843z"/>
			<path class="st1" d="M45.625,44.147c-0.095-0.123,0.009-0.3,0.163-0.276c0.358,0.054,0.708,0.109,1.06,0.15
				c2.34,0.272,4.681,0.529,7.02,0.811c0.705,0.085,1.402,0.24,2.106,0.342c0.251,0.036,0.314,0.123,0.274,0.375
				c-0.446,2.762-1.746,5.027-3.912,6.8c-0.204,0.167-0.3,0.127-0.461-0.056c-1.646-1.876-3.057-3.93-4.549-5.924
				C46.766,45.622,46.191,44.888,45.625,44.147L45.625,44.147z"/>
		</g>
		<path class="st1" d="M70.235,31.36c-0.073-0.011-0.111-0.094-0.07-0.156c0.975-1.454,1.972-2.835,3.1-4.12
			c0.152-0.173,0.273-0.096,0.417-0.041c2.314,0.879,4.386,2.154,6.213,3.821c2.193,2,3.868,4.358,4.766,7.206
			c1.372,4.351,0.683,8.44-1.775,12.226c-2.248,3.462-5.391,5.847-9.226,7.339c-0.189,0.074-0.298,0.052-0.436-0.105
			c-1.125-1.276-2.107-2.659-3.057-4.066c0,0-0.001-0.001-0.001-0.001c-0.04-0.06,0.003-0.14,0.073-0.15
			c6.004-0.865,10.217-5.597,10.011-11.339C80.063,36.725,76.2,32.251,70.235,31.36z"/>
	</g>
	<g>
		<g>
			<path class="st1" d="M34.29,42.516c-1.748,0.193-3.462,0.369-5.19,0.71c-3.114,0.613-6.005,1.701-8.369,3.919
				c-1.298,1.218-2.373,2.62-3.396,4.066c-0.081,0.114-0.145,0.197-0.317,0.19c-1.984-0.082-3.837-0.562-5.453-1.772
				c-0.126-0.094-0.248-0.194-0.401-0.316c-0.032-0.025-0.021-0.076,0.018-0.087c0.566-0.156,1.086-0.316,1.588-0.529
				c1.677-0.712,3.123-1.726,4.109-3.287c1.313-2.077,1.104-4.633-0.499-6.556c-1.305-1.565-3-2.51-4.927-3.081
				c-0.094-0.028-0.188-0.055-0.28-0.088c-0.043-0.015-0.089-0.049-0.063-0.076c0.546-0.521,1.186-0.901,1.86-1.221
				c1.242-0.59,2.564-0.839,3.932-0.892c0.226-0.009,0.3,0.122,0.397,0.259c0.833,1.173,1.721,2.299,2.718,3.34
				c2.014,2.105,4.491,3.392,7.271,4.153c2.177,0.596,4.408,0.861,6.643,1.106c0.122,0.013,0.242,0.033,0.364,0.05
				C34.379,42.418,34.364,42.515,34.29,42.516z"/>
			<path class="st1" d="M14.171,26.055c-0.084-0.099,0.001-0.249,0.129-0.227c2.751,0.488,5.444,0.545,8.112,0.84
				c1.759,0.195,3.511,0.435,5.169,1.106c0,0,0.001,0,0.001,0.001c0.101,0.041,0.115,0.176,0.027,0.241
				c-2.87,2.099-4.485,4.897-4.852,8.437c-0.011,0.108-0.138,0.161-0.224,0.094c-1.045-0.81-1.859-1.734-2.631-2.7
				c-1.452-1.814-2.697-3.776-4.059-5.654C15.325,27.479,14.788,26.781,14.171,26.055z"/>
			<path class="st1" d="M40.309,40.75c0.095,0.123-0.009,0.3-0.163,0.276c-0.358-0.054-0.708-0.109-1.06-0.15
				c-2.34-0.272-4.681-0.529-7.02-0.811c-0.705-0.085-1.402-0.24-2.106-0.342c-0.251-0.036-0.314-0.123-0.274-0.375
				c0.446-2.762,1.746-5.027,3.912-6.8c0.204-0.167,0.3-0.127,0.461,0.056c1.646,1.876,3.057,3.93,4.549,5.924
				C39.168,39.276,39.743,40.01,40.309,40.75L40.309,40.75z"/>
		</g>
		<path class="st1" d="M15.699,53.538c0.073,0.011,0.111,0.094,0.07,0.156c-0.975,1.454-1.972,2.835-3.1,4.12
			c-0.152,0.173-0.273,0.096-0.417,0.041c-2.314-0.879-4.386-2.154-6.213-3.821c-2.193-2-3.868-4.358-4.766-7.206
			c-1.372-4.351-0.683-8.44,1.775-12.226c2.248-3.462,5.391-5.847,9.226-7.339c0.189-0.074,0.298-0.052,0.436,0.105
			c1.125,1.276,2.107,2.659,3.057,4.066c0,0,0.001,0.001,0.001,0.001c0.04,0.06-0.003,0.14-0.073,0.15
			C9.692,32.451,5.478,37.184,5.684,42.926C5.871,48.172,9.734,52.646,15.699,53.538z"/>
	</g>
</g>
</svg>
