<?xml version="1.0" encoding="utf-8"?>
<!-- Generator: Adobe Illustrator 24.3.0, SVG Export Plug-In . SVG Version: 6.00 Build 0)  -->
<svg version="1.1" id="Layer_1" xmlns="http://www.w3.org/2000/svg" xmlns:xlink="http://www.w3.org/1999/xlink" x="0px" y="0px"
	 viewBox="0 0 380 85" style="enable-background:new 0 0 380 85;" xml:space="preserve">
<style type="text/css">
	.st0{enable-background:new    ;}
	.st1{fill:#0FD297;}
</style>
<g class="st0">
	<path class="st1" d="M99,39.2c0-1-0.6-1.5-1.5-1.5h-2.9v-5.8h6.5c3.1,0,4.5,1.3,4.5,3.9v1.3c0,1.1-0.1,2-0.1,2h0.1
		c1.7-4.1,6.6-8.1,12.1-8.1c6,0,9.5,2.7,10.6,8.1h0.1c2-4.3,6.9-8.1,12.6-8.1c8,0,11.7,4.6,11.7,13.6v15.3c0,1,0.6,1.5,1.5,1.5h2.9
		v5.8h-6.7c-3.2,0-4.5-1.3-4.5-4.5V46.1c0-5-1-8.9-6.2-8.9c-4.9,0-8.7,4.3-9.9,9.1c-0.3,1.5-0.6,3-0.6,4.8v16.2h-6.8V46.1
		c0-4.6-0.7-8.9-6.1-8.9c-5.2,0-8.8,4.3-10.2,9.4c-0.4,1.4-0.5,2.9-0.5,4.6v16.2H99V39.2z"/>
	<path class="st1" d="M182.6,45.2h1.5v-0.3c0-6.2-2.3-8.5-7.8-8.5c-1.7,0-5.8,0.4-5.8,2.7v2h-6.4v-3.5c0-5.8,8.8-6.7,12.3-6.7
		c11.5,0,14.6,6,14.6,13.9v15.1c0,1,0.6,1.5,1.5,1.5h2.9v5.8h-6.4c-3.1,0-4.4-1.5-4.4-4.1c0-1.2,0.1-2.1,0.1-2.1h-0.1
		c0,0-2.8,7-11.3,7c-6.1,0-12-3.7-12-10.8C161.2,45.9,176.6,45.2,182.6,45.2z M174.7,62.6c5.7,0,9.5-6,9.5-11.3v-1.2h-1.8
		c-5.1,0-14.4,0.3-14.4,6.8C168.1,59.8,170.3,62.6,174.7,62.6z"/>
	<path class="st1" d="M202.7,39.2c0-1-0.6-1.5-1.5-1.5h-2.9v-5.8h6.5c3,0,4.5,1.3,4.5,3.9v1.3c0,1.1-0.1,2-0.1,2h0.1
		c1.4-3.1,5.6-8.1,13.3-8.1c8.4,0,12.2,4.6,12.2,13.6v15.3c0,1,0.6,1.5,1.5,1.5h2.9v5.8h-6.7c-3.2,0-4.5-1.3-4.5-4.5V46.1
		c0-5-1-8.9-6.7-8.9c-5.5,0-9.8,3.6-11.2,8.7c-0.5,1.4-0.6,3-0.6,4.8v16.6h-6.8V39.2z"/>
	<path class="st1" d="M259.2,31c8.2,0,10.9,5.5,10.9,5.5h0.1c0,0-0.1-1.1-0.1-2.4v-8.9c0-1.1-0.6-1.5-1.5-1.5h-2.9v-5.8h6.7
		c3.2,0,4.5,1.3,4.5,4.5v37.6c0,1,0.6,1.5,1.5,1.5h2.9v5.8h-6.5c-3.1,0-4.3-1.4-4.3-3.8c0-1,0.1-1.8,0.1-1.8h-0.1
		c0,0-2.9,6.4-11.6,6.4c-9.6,0-15.6-7.6-15.6-18.6C243.1,38.3,249.8,31,259.2,31z M270.3,49.5c0-6.3-3.3-12.6-10.1-12.6
		c-5.5,0-10.2,4.6-10.2,12.7c0,7.7,4.1,12.7,10,12.7C265.3,62.2,270.3,58.5,270.3,49.5z"/>
	<path class="st1" d="M306.8,45.2h1.5v-0.3c0-6.2-2.3-8.5-7.8-8.5c-1.7,0-5.8,0.4-5.8,2.7v2h-6.4v-3.5c0-5.8,8.8-6.7,12.3-6.7
		c11.5,0,14.6,6,14.6,13.9v15.1c0,1,0.6,1.5,1.5,1.5h2.9v5.8h-6.4c-3.2,0-4.4-1.5-4.4-4.1c0-1.2,0.1-2.1,0.1-2.1h-0.1
		c0,0-2.8,7-11.3,7c-6.1,0-12-3.7-12-10.8C285.5,45.9,300.9,45.2,306.8,45.2z M299,62.6c5.7,0,9.5-6,9.5-11.3v-1.2h-1.8
		c-5.1,0-14.4,0.3-14.4,6.8C292.3,59.8,294.5,62.6,299,62.6z"/>
	<path class="st1" d="M326.8,25.2c0-1.1-0.6-1.5-1.5-1.5h-2.9v-5.8h6.7c3.2,0,4.5,1.3,4.5,4.5v37.6c0,1,0.6,1.5,1.5,1.5h2.9v5.8
		h-6.7c-3.2,0-4.5-1.3-4.5-4.5V25.2z"/>
	<path class="st1" d="M363.7,45.2h1.5v-0.3c0-6.2-2.3-8.5-7.8-8.5c-1.7,0-5.8,0.4-5.8,2.7v2h-6.4v-3.5c0-5.8,8.8-6.7,12.3-6.7
		c11.5,0,14.6,6,14.6,13.9v15.1c0,1,0.6,1.5,1.5,1.5h2.9v5.8H370c-3.1,0-4.4-1.5-4.4-4.1c0-1.2,0.1-2.1,0.1-2.1h-0.1
		c0,0-2.8,7-11.3,7c-6.1,0-12-3.7-12-10.8C342.3,45.9,357.7,45.2,363.7,45.2z M355.8,62.6c5.7,0,9.5-6,9.5-11.3v-1.2h-1.8
		c-5.1,0-14.4,0.3-14.4,6.8C349.2,59.8,351.3,62.6,355.8,62.6z"/>
</g>
<g>
	<g>
		<g>
			<g>
				<path class="st1" d="M47.4,50c1,1.4,2,2.8,3.2,4.1c2.1,2.4,4.5,4.3,7.6,5.3c1.7,0.5,3.4,0.7,5.2,0.9c0.1,0,0.2,0,0.3,0.2
					c0.9,1.8,1.4,3.6,1.2,5.6c0,0.2,0,0.3-0.1,0.5c0,0-0.1,0.1-0.1,0c-0.4-0.4-0.8-0.8-1.2-1.1c-1.5-1.1-3-1.8-4.9-1.9
					c-2.4-0.1-4.5,1.4-5.4,3.7c-0.7,1.9-0.7,3.8-0.2,5.8c0,0.1,0,0.2,0.1,0.3v0.1c-0.7-0.2-1.4-0.6-2-1c-1.1-0.8-2-1.8-2.7-2.9
					c-0.1-0.2,0-0.3,0-0.5c0.6-1.3,1.1-2.6,1.5-4c0.8-2.8,0.7-5.6,0-8.3c-0.6-2.2-1.5-4.2-2.4-6.3C47.4,50.2,47.3,50.1,47.4,50
					C47.2,49.9,47.3,49.9,47.4,50z"/>
				<path class="st1" d="M43.2,75.5c0,0.1-0.2,0.1-0.3,0c-0.9-2.6-2.2-5-3.3-7.4c-0.7-1.6-1.4-3.2-1.6-5l0,0c0-0.1,0.1-0.2,0.2-0.1
					c3.2,1.4,6.5,1.4,9.7,0c0.1,0,0.2,0,0.2,0.1c-0.2,1.3-0.6,2.5-1,3.6c-0.8,2.2-1.9,4.2-2.9,6.3C43.8,73.8,43.5,74.6,43.2,75.5z"
					/>
				<path class="st1" d="M42.8,45.7c0.1-0.1,0.3-0.1,0.3,0c0.1,0.3,0.3,0.7,0.4,1c0.9,2.2,1.9,4.3,2.8,6.5c0.3,0.7,0.5,1.3,0.8,2
					c0.1,0.2,0.1,0.3-0.2,0.4c-2.6,1-5.2,1-7.8,0c-0.2-0.1-0.3-0.2-0.2-0.4c0.8-2.4,1.9-4.6,2.8-6.9C42.1,47.4,42.5,46.5,42.8,45.7
					L42.8,45.7z"/>
			</g>
			<path class="st1" d="M66.1,60.5C66.1,60.4,66.1,60.4,66.1,60.5c1.8,0,3.5,0.2,5.2,0.5c0.2,0,0.2,0.2,0.2,0.3
				c0.4,2.4,0.3,4.9-0.2,7.3c-0.6,2.9-1.8,5.5-3.8,7.7c-3.1,3.4-6.9,4.8-11.4,4.6c-4.1-0.2-7.7-1.7-10.9-4.3
				C45,76.4,45,76.3,45,76.1c0.5-1.6,1.2-3.1,2-4.7l0,0c0-0.1,0.1-0.1,0.2,0c3.7,4.7,9.9,6,14.8,3C66.4,71.7,68.3,66.1,66.1,60.5z"
				/>
		</g>
		<g>
			<g>
				<path class="st1" d="M38.7,50.1c-0.7,1.6-1.4,3.2-2,4.8c-1,3-1.5,6-0.8,9.2c0.4,1.7,1.1,3.4,1.8,5c0.1,0.1,0.1,0.2,0,0.4
					c-1.1,1.7-2.4,3-4.2,3.8c-0.1,0.1-0.3,0.1-0.5,0.2c0,0-0.1,0-0.1-0.1c0.1-0.6,0.3-1.1,0.3-1.6c0.2-1.8,0.1-3.6-0.8-5.2
					c-1.1-2.2-3.4-3.3-5.9-2.8c-2,0.3-3.7,1.3-5.1,2.7c-0.1,0.1-0.1,0.1-0.2,0.2c0,0-0.1,0.1-0.1,0c-0.2-0.7-0.2-1.5-0.1-2.2
					c0.1-1.4,0.6-2.6,1.2-3.8c0.1-0.2,0.3-0.2,0.4-0.2c1.4-0.1,2.8-0.3,4.2-0.7c2.8-0.7,5.2-2.2,7.2-4.2c1.6-1.6,2.9-3.4,4.3-5.2
					C38.5,50.2,38.6,50.1,38.7,50.1C38.7,49.9,38.8,50,38.7,50.1z"/>
				<path class="st1" d="M14.5,59.2c-0.1,0-0.2-0.1-0.1-0.2c1.8-2.1,3.2-4.4,4.8-6.6c1-1.4,2.1-2.8,3.5-3.9l0,0
					c0.1-0.1,0.2,0,0.2,0.1c0.4,3.5,2,6.3,4.9,8.4c0.1,0.1,0.1,0.2,0,0.2c-1.2,0.5-2.4,0.7-3.6,0.9c-2.3,0.3-4.6,0.4-6.9,0.7
					C16.3,58.9,15.4,59.1,14.5,59.2z"/>
				<path class="st1" d="M40.2,44c0.2,0,0.3,0.2,0.2,0.3c-0.2,0.3-0.4,0.6-0.7,0.8c-1.4,1.9-2.8,3.8-4.2,5.7
					c-0.4,0.6-0.9,1.1-1.3,1.6c-0.2,0.2-0.3,0.2-0.5,0c-2.2-1.8-3.5-4-3.9-6.8c0-0.3,0-0.3,0.3-0.4c2.4-0.5,4.9-0.7,7.4-1
					C38.4,44.2,39.3,44.1,40.2,44L40.2,44z"/>
			</g>
			<path class="st1" d="M39,71.6c0-0.1,0.1,0,0.2,0c0.8,1.6,1.5,3.1,2,4.7c0.1,0.2-0.1,0.3-0.2,0.4c-1.9,1.6-4,2.7-6.4,3.5
				c-2.8,0.9-5.7,1.2-8.6,0.5c-4.4-1-7.6-3.6-9.7-7.6c-1.9-3.7-2.4-7.6-1.7-11.6c0-0.2,0.1-0.3,0.3-0.3c1.7-0.3,3.3-0.5,5-0.6l0,0
				c0.1,0,0.1,0.1,0.1,0.1c-2.2,5.6-0.3,11.6,4.8,14.3C29.5,77.4,35.2,76.3,39,71.6z"/>
		</g>
	</g>
	<g>
		<g>
			<g>
				<path class="st1" d="M38.7,35c-1-1.4-2-2.8-3.2-4.1c-2.1-2.4-4.5-4.3-7.6-5.3c-1.7-0.5-3.4-0.7-5.2-0.9c-0.1,0-0.2,0-0.3-0.2
					C21.5,22.8,21,21,21.2,19c0-0.2,0-0.3,0.1-0.5c0,0,0.1-0.1,0.1,0c0.4,0.4,0.8,0.8,1.2,1.1c1.5,1.1,3,1.8,4.9,1.9
					c2.4,0.1,4.5-1.4,5.4-3.7c0.7-1.9,0.7-3.8,0.2-5.8c0-0.1,0-0.2-0.1-0.3v-0.1c0.7,0.2,1.4,0.6,2,1c1.1,0.8,2,1.8,2.7,2.9
					c0.1,0.2,0,0.3,0,0.5c-0.6,1.3-1.1,2.6-1.5,4c-0.8,2.8-0.7,5.6,0,8.3c0.6,2.2,1.5,4.2,2.4,6.3C38.7,34.8,38.7,34.9,38.7,35
					C38.8,35.1,38.7,35.1,38.7,35z"/>
				<path class="st1" d="M42.8,9.5c0-0.1,0.2-0.1,0.3,0c0.9,2.6,2.2,5,3.3,7.4c0.7,1.6,1.4,3.2,1.6,5l0,0c0,0.1-0.1,0.2-0.2,0.1
					c-3.2-1.4-6.5-1.4-9.7,0c-0.1,0-0.2,0-0.2-0.1c0.2-1.3,0.6-2.5,1-3.6c0.8-2.2,1.9-4.2,2.9-6.3C42.2,11.2,42.5,10.4,42.8,9.5z"/>
				<path class="st1" d="M43.2,39.4c-0.1,0.1-0.3,0.1-0.3,0c-0.1-0.3-0.3-0.7-0.4-1c-0.9-2.2-1.9-4.3-2.8-6.5
					c-0.3-0.7-0.5-1.3-0.8-2c-0.1-0.2-0.1-0.3,0.2-0.4c2.6-1,5.2-1,7.8,0c0.2,0.1,0.3,0.2,0.2,0.4c-0.8,2.4-1.9,4.6-2.8,6.9
					C43.9,37.6,43.5,38.5,43.2,39.4L43.2,39.4z"/>
			</g>
			<path class="st1" d="M19.9,24.5c0,0.1,0,0.1-0.1,0.1c-1.7-0.1-3.4-0.3-5.1-0.6c-0.2,0-0.2-0.2-0.2-0.3c-0.4-2.4-0.3-4.9,0.2-7.3
				c0.6-2.9,1.8-5.5,3.8-7.7c3.1-3.4,6.9-4.8,11.4-4.6c4.1,0.2,7.7,1.7,10.9,4.3C41,8.6,41.1,8.7,41,8.9c-0.5,1.6-1.2,3.1-2,4.7l0,0
				c0,0.1-0.1,0.1-0.2,0c-3.7-4.7-9.9-6-14.8-3C19.6,13.3,17.7,18.9,19.9,24.5z"/>
		</g>
		<g>
			<g>
				<path class="st1" d="M47.3,34.9c0.7-1.6,1.4-3.2,2-4.8c1-3,1.5-6,0.8-9.2c-0.4-1.7-1.1-3.4-1.8-5c-0.1-0.1-0.1-0.2,0-0.4
					c1.1-1.7,2.4-3,4.2-3.8c0.1-0.1,0.3-0.1,0.5-0.2c0,0,0.1,0,0.1,0.1c-0.1,0.6-0.3,1.1-0.3,1.6c-0.2,1.8-0.1,3.6,0.8,5.2
					c1.1,2.2,3.4,3.3,5.9,2.8c2-0.3,3.7-1.3,5.1-2.7c0.1-0.1,0.1-0.1,0.2-0.2c0,0,0.1-0.1,0.1,0c0.2,0.7,0.2,1.5,0.1,2.2
					c-0.1,1.4-0.6,2.6-1.2,3.8c-0.1,0.2-0.3,0.2-0.4,0.2c-1.4,0.1-2.8,0.3-4.2,0.7c-2.8,0.7-5.2,2.2-7.2,4.2
					c-1.6,1.6-2.9,3.4-4.3,5.2C47.5,34.8,47.5,34.9,47.3,34.9C47.3,35.1,47.3,35,47.3,34.9z"/>
				<path class="st1" d="M71.5,25.8c0.1,0,0.2,0.1,0.1,0.2c-1.8,2.1-3.2,4.4-4.8,6.6c-1,1.4-2.1,2.8-3.5,3.9l0,0
					c-0.1,0.1-0.2,0-0.2-0.1c-0.4-3.5-2-6.3-4.9-8.4c-0.1-0.1-0.1-0.2,0-0.2c1.2-0.5,2.4-0.7,3.6-0.9c2.3-0.3,4.6-0.4,6.9-0.7
					C69.7,26.1,70.6,26,71.5,25.8z"/>
				<path class="st1" d="M45.8,41c-0.2,0-0.3-0.2-0.2-0.3c0.2-0.3,0.4-0.6,0.7-0.8c1.4-1.9,2.8-3.8,4.2-5.7c0.4-0.6,0.9-1.1,1.3-1.6
					c0.2-0.2,0.3-0.2,0.5,0c2.2,1.8,3.5,4,3.9,6.8c0,0.3,0,0.3-0.3,0.4c-2.4,0.5-4.9,0.7-7.4,1C47.7,40.8,46.7,40.9,45.8,41L45.8,41
					z"/>
			</g>
			<path class="st1" d="M47,13.4c0,0.1-0.1,0-0.2,0c-0.8-1.6-1.5-3.1-2-4.7c-0.1-0.2,0.1-0.3,0.2-0.4c1.9-1.6,4-2.7,6.4-3.5
				c2.8-0.9,5.7-1.2,8.6-0.5c4.4,1,7.6,3.6,9.7,7.6c1.9,3.7,2.4,7.6,1.7,11.6c0,0.2-0.1,0.3-0.3,0.3c-1.7,0.3-3.3,0.5-5,0.6l0,0
				c-0.1,0-0.1-0.1-0.1-0.1c2.2-5.6,0.3-11.6-4.8-14.3C56.6,7.6,50.8,8.7,47,13.4z"/>
		</g>
	</g>
	<g>
		<g>
			<path class="st1" d="M51.7,42.4c1.7-0.2,3.4-0.4,5.2-0.7c3.1-0.6,6-1.7,8.3-3.9c1.3-1.2,2.4-2.6,3.4-4.1c0.1-0.1,0.1-0.2,0.3-0.2
				c2,0.1,3.8,0.6,5.4,1.8c0.1,0.1,0.2,0.2,0.4,0.3v0.1c-0.6,0.2-1.1,0.3-1.6,0.5c-1.6,0.8-3.1,1.8-4,3.3c-1.3,2.1-1.1,4.6,0.5,6.5
				c1.3,1.6,3,2.5,4.9,3.1c0.1,0,0.2,0.1,0.3,0.1c0,0,0.1,0,0.1,0.1c-0.5,0.5-1.2,0.9-1.9,1.2c-1.2,0.6-2.6,0.8-3.9,0.9
				c-0.2,0-0.3-0.1-0.4-0.3c-0.8-1.2-1.7-2.3-2.7-3.3c-2-2.1-4.5-3.4-7.2-4.1c-2.2-0.6-4.4-0.9-6.6-1.1c-0.1,0-0.2,0-0.4,0
				C51.6,42.5,51.6,42.4,51.7,42.4z"/>
			<path class="st1" d="M71.8,58.8c0.1,0.1,0,0.2-0.1,0.2c-2.7-0.5-5.4-0.5-8.1-0.8c-1.8-0.2-3.5-0.4-5.2-1.1l0,0
				c-0.1,0-0.1-0.2,0-0.2c2.9-2.1,4.5-4.9,4.8-8.4c0-0.1,0.1-0.2,0.2-0.1c1,0.8,1.9,1.7,2.6,2.7c1.4,1.8,2.7,3.8,4,5.6
				C70.6,57.4,71.1,58.1,71.8,58.8z"/>
			<path class="st1" d="M45.7,44.2c-0.1-0.1,0-0.3,0.2-0.3C46.3,44,46.6,44,47,44c2.3,0.3,4.7,0.5,7,0.8c0.7,0.1,1.4,0.2,2.1,0.3
				c0.2,0,0.3,0.1,0.3,0.4c-0.4,2.8-1.7,5-3.9,6.8c-0.2,0.2-0.3,0.1-0.5-0.1c-1.6-1.9-3-3.9-4.5-5.9C46.9,45.6,46.3,44.9,45.7,44.2
				L45.7,44.2z"/>
		</g>
		<path class="st1" d="M70.2,31.4c-0.1,0-0.1-0.1-0.1-0.2c1-1.4,2-2.8,3.1-4.1c0.2-0.2,0.3-0.1,0.4,0c2.3,0.9,4.4,2.1,6.2,3.8
			c2.2,2,3.9,4.3,4.7,7.2c1.4,4.3,0.7,8.4-1.8,12.2c-2.2,3.4-5.4,5.8-9.2,7.3c-0.2,0.1-0.3,0.1-0.4-0.1c-1.1-1.3-2.1-2.6-3-4.1l0,0
			c0-0.1,0-0.1,0.1-0.1c6-0.9,10.2-5.6,10-11.3C80,36.8,76.2,32.3,70.2,31.4z"/>
	</g>
	<g>
		<g>
			<path class="st1" d="M34.4,42.5c-1.7,0.2-3.4,0.4-5.2,0.7c-3.1,0.6-6,1.7-8.3,3.9c-1.3,1.2-2.4,2.6-3.4,4.1
				c-0.1,0.1-0.1,0.2-0.3,0.2c-2-0.1-3.8-0.6-5.4-1.8c-0.1-0.1-0.2-0.2-0.4-0.3v-0.1c0.6-0.2,1.1-0.3,1.6-0.5
				c1.7-0.7,3.1-1.7,4.1-3.3c1.3-2.1,1.1-4.6-0.5-6.5c-1.3-1.6-3-2.5-4.9-3.1c-0.1,0-0.2-0.1-0.3-0.1c0,0-0.1,0-0.1-0.1
				c0.5-0.5,1.2-0.9,1.9-1.2c1.2-0.6,2.6-0.8,3.9-0.9c0.2,0,0.3,0.1,0.4,0.3c0.8,1.2,1.7,2.3,2.7,3.3c2,2.1,4.5,3.4,7.2,4.1
				c2.2,0.6,4.4,0.9,6.6,1.1c0.1,0,0.2,0,0.4,0C34.5,42.4,34.5,42.5,34.4,42.5z"/>
			<path class="st1" d="M14.4,26.1c-0.1-0.1,0-0.2,0.1-0.2c2.7,0.5,5.4,0.5,8.1,0.8c1.8,0.2,3.5,0.4,5.2,1.1l0,0
				c0.1,0,0.1,0.2,0,0.2c-2.9,2.1-4.5,4.9-4.8,8.4c0,0.1-0.1,0.2-0.2,0.1c-1-0.8-1.9-1.7-2.6-2.7c-1.4-1.8-2.7-3.8-4-5.6
				C15.5,27.6,15,26.9,14.4,26.1z"/>
			<path class="st1" d="M40.4,40.8c0.1,0.1,0,0.3-0.2,0.3C39.8,41,39.5,41,39.1,41c-2.3-0.3-4.7-0.5-7-0.8c-0.7-0.1-1.4-0.2-2.1-0.3
				c-0.2,0-0.3-0.1-0.3-0.4c0.4-2.8,1.7-5,3.9-6.8c0.2-0.2,0.3-0.1,0.5,0.1c1.6,1.9,3,3.9,4.5,5.9C39.3,39.3,39.9,40,40.4,40.8
				L40.4,40.8z"/>
		</g>
		<path class="st1" d="M15.9,53.5c0.1,0,0.1,0.1,0.1,0.2c-1,1.4-2,2.8-3.1,4.1c-0.2,0.2-0.3,0.1-0.4,0C10.2,57,8.1,55.7,6.3,54
			c-2.2-2-3.9-4.3-4.7-7.2c-1.4-4.3-0.7-8.4,1.8-12.2c2.2-3.4,5.4-5.8,9.2-7.3c0.2-0.1,0.3-0.1,0.4,0.1c1.1,1.3,2.1,2.6,3,4.1l0,0
			c0,0.1,0,0.1-0.1,0.1c-6,0.9-10.2,5.6-10,11.3C6.1,48.2,10,52.6,15.9,53.5z"/>
	</g>
</g>
</svg>
