<?xml version="1.0" encoding="utf-8"?>
<!-- Generator: Adobe Illustrator 24.3.0, SVG Export Plug-In . SVG Version: 6.00 Build 0)  -->
<svg version="1.1" id="Layer_1" xmlns="http://www.w3.org/2000/svg" xmlns:xlink="http://www.w3.org/1999/xlink" x="0px" y="0px"
	 viewBox="0 0 100 100" style="enable-background:new 0 0 100 100;" xml:space="preserve">
<style type="text/css">
	.st0{fill:#00E3AA;}
	.st1{fill:none;stroke:#347591;stroke-width:4;stroke-linecap:round;stroke-linejoin:round;}
</style>
<path class="st0" d="M31,13h52c3.3,0,6,2.7,6,6v52c0,3.3-2.7,6-6,6H31c-3.3,0-6-2.7-6-6V19C25,15.7,27.7,13,31,13z"/>
<line class="st1" x1="12" y1="88" x2="82" y2="88"/>
<line class="st1" x1="77" y1="48" x2="77" y2="74"/>
<line class="st1" x1="64" y1="48" x2="64" y2="82"/>
<line class="st1" x1="30" y1="48" x2="30" y2="82"/>
<line class="st1" x1="17" y1="74" x2="17" y2="48"/>
<line class="st1" x1="77" y1="82" x2="17" y2="82"/>
<path class="st1" d="M19,47h60.4c1.2,0,2.1-1,2.1-2.2c0-0.8-0.5-1.5-1.2-1.8L49.5,28.5c-1.3-0.7-2.7-0.7-4,0L14.8,43
	c-1,0.5-1.5,1.8-1,2.8c0.3,0.7,1.1,1.2,1.8,1.2H19"/>
<path class="st1" d="M52,80V61c0.1-2.6-1.9-4.9-4.6-5c-0.1,0-0.1,0-0.2,0h-0.1c-2.8,0-5.1,2.2-5.1,5v13"/>
</svg>
