<?xml version="1.0" encoding="utf-8"?>
<!-- Generator: Adobe Illustrator 24.3.0, SVG Export Plug-In . SVG Version: 6.00 Build 0)  -->
<svg version="1.1" id="Layer_1" xmlns="http://www.w3.org/2000/svg" xmlns:xlink="http://www.w3.org/1999/xlink" x="0px" y="0px"
	 viewBox="0 0 100 100" style="enable-background:new 0 0 100 100;" xml:space="preserve">
<style type="text/css">
	.st0{fill:#00E3AA;}
	.st1{fill:none;stroke:#347591;stroke-width:4;stroke-linecap:round;stroke-linejoin:round;}
</style>
<path class="st0" d="M28,18h52c3.3,0,6,2.7,6,6v52c0,3.3-2.7,6-6,6H28c-3.3,0-6-2.7-6-6V24C22,20.7,24.7,18,28,18z"/>
<path class="st1" d="M40.5,76.6C29.1,74.4,21.7,63.4,23.9,52c1.6-8.4,8.2-15,16.6-16.6"/>
<path class="st1" d="M48.5,35.4C59.9,37.6,67.3,48.6,65.1,60c-1.6,8.4-8.2,15-16.6,16.6"/>
<path class="st1" d="M49.2,50.6c-6.3-4.5-8.9-0.1-8.5,2.3c0.3,2.1,3.3,2.8,4.5,3c8.6,1.2,2.9,11.4-5.7,5.1"/>
<line class="st1" x1="44.5" y1="46.1" x2="44.5" y2="48.5"/>
<line class="st1" x1="44.5" y1="63.3" x2="44.5" y2="66.1"/>
<line class="st1" x1="63" y1="77" x2="71" y2="77"/>
<line class="st1" x1="71" y1="85" x2="71" y2="77"/>
<path class="st1" d="M70.7,77.8c-0.7,0.8-1.3,1.5-2,2.2C55.3,93.3,33.7,93.3,20.4,80c-7.3-7.4-10.9-17.6-9.7-28"/>
<line class="st1" x1="25" y1="35" x2="18" y2="35"/>
<line class="st1" x1="18" y1="27" x2="18" y2="35"/>
<path class="st1" d="M18.3,34.2c0.7-0.8,1.3-1.5,2-2.2C33.7,18.7,55.3,18.7,68.6,32c7.3,7.4,10.9,17.6,9.7,28"/>
</svg>
