<?xml version="1.0" encoding="utf-8"?>
<!-- Generator: Adobe Illustrator 24.3.0, SVG Export Plug-In . SVG Version: 6.00 Build 0)  -->
<svg version="1.1" id="Layer_1" xmlns="http://www.w3.org/2000/svg" xmlns:xlink="http://www.w3.org/1999/xlink" x="0px" y="0px"
	 viewBox="0 0 380 85" style="enable-background:new 0 0 380 85;" xml:space="preserve">
<style type="text/css">
	.st0{enable-background:new    ;}
	.st1{fill:#00E3AA;}
	.st2{fill:#FFFFFF;}
	.st3{clip-path:url(#SVGID_2_);fill:#F0B90B;}
	.st4{clip-path:url(#SVGID_4_);}
	.st5{clip-path:url(#SVGID_6_);fill:#F0B90B;}
</style>
<g class="st0">
	<path class="st1" d="M99,27.2c0-1-0.6-1.5-1.5-1.5h-2.9v-5.8h6.5c3.1,0,4.5,1.3,4.5,3.9v1.3c0,1.1-0.1,2-0.1,2h0.1
		c1.7-4.1,6.6-8.1,12.1-8.1c6,0,9.5,2.7,10.6,8.1h0.1c2-4.3,6.9-8.1,12.6-8.1c8,0,11.7,4.6,11.7,13.6v15.3c0,1,0.6,1.5,1.5,1.5h2.9
		v5.8h-6.7c-3.2,0-4.5-1.3-4.5-4.5V34.1c0-5-1-8.9-6.2-8.9c-4.9,0-8.7,4.3-9.9,9.1c-0.3,1.5-0.6,3-0.6,4.8v16.2h-6.8V34.1
		c0-4.6-0.7-8.9-6.1-8.9c-5.2,0-8.8,4.3-10.2,9.4c-0.4,1.4-0.5,2.9-0.5,4.6v16.2H99V27.2z"/>
	<path class="st1" d="M182.6,33.2h1.5v-0.3c0-6.2-2.3-8.5-7.8-8.5c-1.7,0-5.8,0.4-5.8,2.7v2h-6.4v-3.5c0-5.8,8.8-6.7,12.3-6.7
		c11.5,0,14.6,6,14.6,13.9v15.1c0,1,0.6,1.5,1.5,1.5h2.9v5.8h-6.4c-3.1,0-4.4-1.5-4.4-4.1c0-1.2,0.1-2.1,0.1-2.1h-0.1
		c0,0-2.8,7-11.3,7c-6.1,0-12-3.7-12-10.8C161.2,33.9,176.6,33.2,182.6,33.2z M174.7,50.6c5.7,0,9.5-6,9.5-11.3v-1.2h-1.8
		c-5.1,0-14.4,0.3-14.4,6.8C168.1,47.8,170.3,50.6,174.7,50.6z"/>
	<path class="st1" d="M202.7,27.2c0-1-0.6-1.5-1.5-1.5h-2.9v-5.8h6.5c3,0,4.5,1.3,4.5,3.9v1.3c0,1.1-0.1,2-0.1,2h0.1
		c1.4-3.1,5.6-8.1,13.3-8.1c8.4,0,12.2,4.6,12.2,13.6v15.3c0,1,0.6,1.5,1.5,1.5h2.9v5.8h-6.7c-3.2,0-4.5-1.3-4.5-4.5V34.1
		c0-5-1-8.9-6.7-8.9c-5.5,0-9.8,3.6-11.2,8.7c-0.5,1.4-0.6,3-0.6,4.8v16.6h-6.8V27.2z"/>
	<path class="st1" d="M259.2,19c8.2,0,10.9,5.5,10.9,5.5h0.1c0,0-0.1-1.1-0.1-2.4v-8.9c0-1.1-0.6-1.5-1.5-1.5h-2.9V5.8h6.7
		c3.2,0,4.5,1.3,4.5,4.5v37.6c0,1,0.6,1.5,1.5,1.5h2.9v5.8h-6.5c-3.1,0-4.3-1.4-4.3-3.8c0-1,0.1-1.8,0.1-1.8h-0.1
		c0,0-2.9,6.4-11.6,6.4c-9.6,0-15.6-7.6-15.6-18.6C243.1,26.3,249.8,19,259.2,19z M270.3,37.5c0-6.3-3.3-12.6-10.1-12.6
		c-5.5,0-10.2,4.6-10.2,12.7c0,7.7,4.1,12.7,10,12.7C265.3,50.2,270.3,46.5,270.3,37.5z"/>
	<path class="st1" d="M306.8,33.2h1.5v-0.3c0-6.2-2.3-8.5-7.8-8.5c-1.7,0-5.8,0.4-5.8,2.7v2h-6.4v-3.5c0-5.8,8.8-6.7,12.3-6.7
		c11.5,0,14.6,6,14.6,13.9v15.1c0,1,0.6,1.5,1.5,1.5h2.9v5.8h-6.4c-3.2,0-4.4-1.5-4.4-4.1c0-1.2,0.1-2.1,0.1-2.1h-0.1
		c0,0-2.8,7-11.3,7c-6.1,0-12-3.7-12-10.8C285.5,33.9,300.9,33.2,306.8,33.2z M299,50.6c5.7,0,9.5-6,9.5-11.3v-1.2h-1.8
		c-5.1,0-14.4,0.3-14.4,6.8C292.3,47.8,294.5,50.6,299,50.6z"/>
	<path class="st1" d="M326.8,13.2c0-1.1-0.6-1.5-1.5-1.5h-2.9V5.8h6.7c3.2,0,4.5,1.3,4.5,4.5v37.6c0,1,0.6,1.5,1.5,1.5h2.9v5.8h-6.7
		c-3.2,0-4.5-1.3-4.5-4.5V13.2z"/>
	<path class="st1" d="M363.7,33.2h1.5v-0.3c0-6.2-2.3-8.5-7.8-8.5c-1.7,0-5.8,0.4-5.8,2.7v2h-6.4v-3.5c0-5.8,8.8-6.7,12.3-6.7
		c11.5,0,14.6,6,14.6,13.9v15.1c0,1,0.6,1.5,1.5,1.5h2.9v5.8H370c-3.1,0-4.4-1.5-4.4-4.1c0-1.2,0.1-2.1,0.1-2.1h-0.1
		c0,0-2.8,7-11.3,7c-6.1,0-12-3.7-12-10.8C342.3,33.9,357.7,33.2,363.7,33.2z M355.8,50.6c5.7,0,9.5-6,9.5-11.3v-1.2h-1.8
		c-5.1,0-14.4,0.3-14.4,6.8C349.2,47.8,351.3,50.6,355.8,50.6z"/>
</g>
<g class="st0">
	<path class="st2" d="M97.3,67.1h-1.2v-1.6h5.9c2.5,0,4.2,1.7,4.2,4.2c0,2.5-1.7,4.3-4.2,4.3h-2.8v5h-1.9V67.1z M101.7,72.3
		c1.6,0,2.5-1,2.5-2.6c0-1.6-1-2.6-2.5-2.6h-2.5v5.2H101.7z"/>
	<path class="st2" d="M112.1,69.1c2.9,0,5.2,2.1,5.2,5c0,2.9-2.3,5.1-5.2,5.1c-2.9,0-5.2-2.1-5.2-5.1
		C106.9,71.2,109.2,69.1,112.1,69.1z M112.1,77.5c1.8,0,3.3-1.4,3.3-3.5c0-2-1.5-3.4-3.3-3.4c-1.8,0-3.3,1.4-3.3,3.4
		C108.8,76.1,110.3,77.5,112.1,77.5z"/>
	<path class="st2" d="M118.8,71.3c-0.1-0.3-0.3-0.4-0.6-0.4H118v-1.6h1.2c0.9,0,1.2,0.2,1.4,1l1.7,5.7c0.2,0.5,0.2,1,0.2,1h0
		c0,0,0.1-0.5,0.3-1l2.1-6.7h1.7l2.1,6.7c0.2,0.5,0.2,1,0.2,1h0c0,0,0.1-0.5,0.2-1l1.7-5.7c0.2-0.8,0.6-1,1.4-1h1.1v1.6h-0.3
		c-0.3,0-0.5,0.1-0.6,0.4l-2.5,7.7H128l-2-6.2c-0.2-0.5-0.3-1-0.3-1h0c0,0-0.1,0.6-0.3,1l-2,6.2h-2.1L118.8,71.3z"/>
	<path class="st2" d="M138.9,69.1c2.7,0,4.1,2,4.1,4.5c0,0.2-0.1,0.8-0.1,0.8h-7c0.1,2.1,1.6,3.2,3.3,3.2c1.7,0,2.8-1.1,2.8-1.1
		l0.8,1.3c0,0-1.4,1.4-3.7,1.4c-3,0-5.1-2.2-5.1-5C134.1,71,136.2,69.1,138.9,69.1z M141.2,73c-0.1-1.6-1.1-2.5-2.3-2.5
		c-1.4,0-2.5,0.9-2.8,2.5H141.2z"/>
	<path class="st2" d="M145.5,71.3c0-0.3-0.2-0.4-0.4-0.4h-0.8v-1.6h1.7c0.8,0,1.2,0.3,1.2,1.1V71c0,0.4,0,0.7,0,0.7h0
		c0.5-1.4,1.6-2.5,3-2.5c0.2,0,0.5,0,0.5,0V71c0,0-0.2-0.1-0.6-0.1c-1.2,0-2.3,0.8-2.7,2.3c-0.2,0.6-0.2,1.1-0.2,1.7v3.9h-1.8V71.3z
		"/>
	<path class="st2" d="M156.4,69.1c2.7,0,4.1,2,4.1,4.5c0,0.2-0.1,0.8-0.1,0.8h-7c0.1,2.1,1.6,3.2,3.3,3.2c1.7,0,2.8-1.1,2.8-1.1
		l0.8,1.3c0,0-1.4,1.4-3.7,1.4c-3,0-5.1-2.2-5.1-5C151.6,71,153.7,69.1,156.4,69.1z M158.6,73c-0.1-1.6-1.1-2.5-2.3-2.5
		c-1.4,0-2.5,0.9-2.8,2.5H158.6z"/>
	<path class="st2" d="M166.4,69.1c2.2,0,3,1.5,3,1.5h0c0,0,0-0.3,0-0.6v-2.4c0-0.3-0.2-0.4-0.4-0.4h-0.8v-1.6h1.8
		c0.9,0,1.2,0.4,1.2,1.2v10.2c0,0.3,0.2,0.4,0.4,0.4h0.8v1.6h-1.8c-0.8,0-1.2-0.4-1.2-1c0-0.3,0-0.5,0-0.5h0c0,0-0.8,1.7-3.2,1.7
		c-2.6,0-4.2-2.1-4.2-5C162.1,71,163.9,69.1,166.4,69.1z M169.5,74.1c0-1.7-0.9-3.4-2.7-3.4c-1.5,0-2.8,1.3-2.8,3.4
		c0,2.1,1.1,3.4,2.7,3.4C168.1,77.5,169.5,76.5,169.5,74.1z"/>
	<path class="st2" d="M179.5,67.5c0-0.3-0.2-0.4-0.4-0.4h-0.8v-1.6h1.8c0.9,0,1.2,0.4,1.2,1.2v3.1c0,0.5,0,0.8,0,0.8h0
		c0,0,0.8-1.6,3.1-1.6c2.6,0,4.2,2.1,4.2,5c0,3.1-1.8,5-4.4,5c-2.1,0-3-1.6-3-1.6h0c0,0,0,0.3,0,0.7v0.7h-1.8V67.5z M184,77.6
		c1.5,0,2.8-1.3,2.8-3.4c0-2.1-1.1-3.4-2.7-3.4c-1.4,0-2.8,1-2.8,3.5C181.3,75.9,182.2,77.6,184,77.6z"/>
	<path class="st2" d="M191.5,81.3c0.7,0,1.3-0.5,1.7-1.4l0.4-1l-3.3-7.6c-0.1-0.3-0.3-0.4-0.6-0.4h-0.2v-1.6h1.1
		c0.8,0,1.1,0.2,1.4,1l2.2,5.4c0.2,0.5,0.3,1.2,0.3,1.2h0c0,0,0.1-0.7,0.3-1.2l2-5.4c0.3-0.8,0.6-1,1.4-1h1.1v1.6h-0.2
		c-0.3,0-0.5,0.1-0.6,0.4l-3.8,9.4c-0.6,1.5-1.7,2.3-3.1,2.3c-1.4,0-2.3-1-2.3-1l0.8-1.3C190.1,80.6,190.6,81.3,191.5,81.3z"/>
</g>
<g>
	<g>
		<g>
			<g>
				<g>
					<defs>
						<rect id="SVGID_1_" x="210.4" y="63.5" width="168.2" height="21.2"/>
					</defs>
					<clipPath id="SVGID_2_">
						<use xlink:href="#SVGID_1_"  style="overflow:visible;"/>
					</clipPath>
					<path class="st3" d="M220.7,79.4l-4-4l-2.3,2.3l6.3,6.3l6.3-6.3l-2.3-2.3L220.7,79.4z M210.4,73.8l2.3,2.3l2.3-2.3l-2.3-2.3
						L210.4,73.8z M218.4,73.8l2.3,2.3l2.3-2.3l-2.3-2.3L218.4,73.8z M226.3,73.8l2.3,2.3l2.3-2.3l-2.3-2.3L226.3,73.8z M220.7,63.5
						l-6.3,6.3l2.3,2.3l4-4l4,4l2.3-2.3L220.7,63.5z"/>
				</g>
			</g>
		</g>
		<g>
			<g>
				<g>
					<defs>
						<rect id="SVGID_3_" x="210.4" y="63.5" width="168.2" height="21.2"/>
					</defs>
					<clipPath id="SVGID_4_">
						<use xlink:href="#SVGID_3_"  style="overflow:visible;"/>
					</clipPath>
					<g class="st4">
						<g>
							<g>
								<g>
									<defs>
										<rect id="SVGID_5_" x="210.4" y="63.5" width="168.2" height="21.2"/>
									</defs>
									<clipPath id="SVGID_6_">
										<use xlink:href="#SVGID_5_"  style="overflow:visible;"/>
									</clipPath>
									<path class="st5" d="M245.2,76L245.2,76c0-1.5-0.8-2.3-2.1-2.8c0.8-0.5,1.5-1.2,1.5-2.4l0,0c0-1.8-1.4-2.9-3.7-2.9h-5.2
										v11.3h5.4C243.5,79.1,245.2,78.1,245.2,76L245.2,76z M242.1,71.2c0,0.8-0.7,1.2-1.8,1.2H238V70h2.4
										C241.5,70,242.1,70.4,242.1,71.2L242.1,71.2z M242.7,75.7c0,0.8-0.7,1.2-1.8,1.2H238v-2.5h2.9
										C242.2,74.4,242.7,74.9,242.7,75.7L242.7,75.7z M250.4,79.1V67.8h-2.5v11.3L250.4,79.1z M263.7,79.1V67.8h-2.4v6.9
										l-5.3-6.9h-2.3v11.3h2.4v-7.2l5.5,7.2L263.7,79.1z M277.4,79.1l-4.8-11.3h-2.3l-4.8,11.3h2.5l1-2.5h4.8l1,2.5H277.4z
										 M272.9,74.4h-3l1.5-3.7L272.9,74.4z M289.2,79.1V67.8h-2.4v6.9l-5.3-6.9h-2.3v11.3h2.4v-7.2l5.5,7.2L289.2,79.1z
										 M302,77.3l-1.6-1.6c-0.9,0.8-1.7,1.3-3,1.3c-1.9,0-3.3-1.6-3.3-3.5l0,0c0-1.9,1.4-3.5,3.3-3.5c1.1,0,2,0.5,2.9,1.3
										l1.6-1.8c-1.1-1-2.3-1.7-4.4-1.7c-3.5,0-5.9,2.6-5.9,5.8l0,0c0,3.2,2.5,5.8,5.8,5.8C299.6,79.3,300.9,78.5,302,77.3
										 M312.6,79.1v-2.2h-6.1v-2.4h5.3v-2.2h-5.3V70h6v-2.2H304v11.3L312.6,79.1z M325.4,79.3c-3.3,0-5.8-2.6-5.8-5.8
										c0-3.2,2.4-5.9,5.8-5.9c2.1,0,3.3,0.7,4.4,1.8l-1.3,1.5c-0.9-0.8-1.9-1.4-3.2-1.4c-2.2,0-3.7,1.8-3.7,4s1.6,4,3.7,4
										c1.4,0,2.3-0.6,3.2-1.5l1.3,1.3C328.8,78.5,327.5,79.3,325.4,79.3L325.4,79.3z M332.2,67.8h2v9.5h5.9v1.8h-7.9V67.8z
										 M347.2,79.3c-3.5,0-5.9-2.6-5.9-5.8s2.5-5.9,5.9-5.9c3.5,0,5.9,2.6,5.9,5.8C353.2,76.6,350.7,79.3,347.2,79.3L347.2,79.3z
										 M347.2,69.4c-2.2,0-3.8,1.8-3.8,4s1.6,4,3.8,4c2.2,0,3.8-1.8,3.8-4S349.5,69.4,347.2,69.4L347.2,69.4z M365.3,74.2
										c0,3.4-1.9,5.1-4.9,5.1s-4.8-1.7-4.8-5v-6.5h2v6.4c0,2.1,1.1,3.2,2.9,3.2s2.8-1.1,2.8-3.1v-6.5h2V74.2z M372.6,79.1h-4.2
										V67.8h4.2c3.6,0,6,2.4,6,5.6S376.2,79.1,372.6,79.1 M372.6,69.6h-2.2v7.7h2.2c2.4,0,3.9-1.6,3.9-3.8S375,69.6,372.6,69.6"
										/>
								</g>
							</g>
						</g>
					</g>
				</g>
			</g>
		</g>
	</g>
</g>
<g>
	<g>
		<g>
			<g>
				<path class="st1" d="M47.4,50c1,1.4,2,2.8,3.2,4.1c2.1,2.4,4.5,4.3,7.6,5.3c1.7,0.5,3.4,0.7,5.2,0.9c0.1,0,0.2,0,0.3,0.2
					c0.9,1.8,1.4,3.6,1.2,5.6c0,0.2,0,0.3-0.1,0.5c0,0-0.1,0.1-0.1,0c-0.4-0.4-0.8-0.8-1.2-1.1c-1.5-1.1-3-1.8-4.9-1.9
					c-2.4-0.1-4.5,1.4-5.4,3.7c-0.7,1.9-0.7,3.8-0.2,5.8c0,0.1,0,0.2,0.1,0.3v0.1c-0.7-0.2-1.4-0.6-2-1c-1.1-0.8-2-1.8-2.7-2.9
					c-0.1-0.2,0-0.3,0-0.5c0.6-1.3,1.1-2.6,1.5-4c0.8-2.8,0.7-5.6,0-8.3c-0.6-2.2-1.5-4.2-2.4-6.3C47.4,50.2,47.3,50.1,47.4,50
					C47.2,49.9,47.3,49.9,47.4,50z"/>
				<path class="st1" d="M43.2,75.5c0,0.1-0.2,0.1-0.3,0c-0.9-2.6-2.2-5-3.3-7.4c-0.7-1.6-1.4-3.2-1.6-5l0,0c0-0.1,0.1-0.2,0.2-0.1
					c3.2,1.4,6.5,1.4,9.7,0c0.1,0,0.2,0,0.2,0.1c-0.2,1.3-0.6,2.5-1,3.6c-0.8,2.2-1.9,4.2-2.9,6.3C43.8,73.8,43.5,74.6,43.2,75.5z"
					/>
				<path class="st1" d="M42.8,45.7c0.1-0.1,0.3-0.1,0.3,0c0.1,0.3,0.3,0.7,0.4,1c0.9,2.2,1.9,4.3,2.8,6.5c0.3,0.7,0.5,1.3,0.8,2
					c0.1,0.2,0.1,0.3-0.2,0.4c-2.6,1-5.2,1-7.8,0c-0.2-0.1-0.3-0.2-0.2-0.4c0.8-2.4,1.9-4.6,2.8-6.9C42.1,47.4,42.5,46.5,42.8,45.7
					L42.8,45.7z"/>
			</g>
			<path class="st1" d="M66.1,60.5C66.1,60.4,66.1,60.4,66.1,60.5c1.8,0,3.5,0.2,5.2,0.5c0.2,0,0.2,0.2,0.2,0.3
				c0.4,2.4,0.3,4.9-0.2,7.3c-0.6,2.9-1.8,5.5-3.8,7.7c-3.1,3.4-6.9,4.8-11.4,4.6c-4.1-0.2-7.7-1.7-10.9-4.3
				C45,76.4,45,76.3,45,76.1c0.5-1.6,1.2-3.1,2-4.7l0,0c0-0.1,0.1-0.1,0.2,0c3.7,4.7,9.9,6,14.8,3C66.4,71.7,68.3,66.1,66.1,60.5z"
				/>
		</g>
		<g>
			<g>
				<path class="st1" d="M38.7,50.1c-0.7,1.6-1.4,3.2-2,4.8c-1,3-1.5,6-0.8,9.2c0.4,1.7,1.1,3.4,1.8,5c0.1,0.1,0.1,0.2,0,0.4
					c-1.1,1.7-2.4,3-4.2,3.8c-0.1,0.1-0.3,0.1-0.5,0.2c0,0-0.1,0-0.1-0.1c0.1-0.6,0.3-1.1,0.3-1.6c0.2-1.8,0.1-3.6-0.8-5.2
					c-1.1-2.2-3.4-3.3-5.9-2.8c-2,0.3-3.7,1.3-5.1,2.7c-0.1,0.1-0.1,0.1-0.2,0.2c0,0-0.1,0.1-0.1,0c-0.2-0.7-0.2-1.5-0.1-2.2
					c0.1-1.4,0.6-2.6,1.2-3.8c0.1-0.2,0.3-0.2,0.4-0.2c1.4-0.1,2.8-0.3,4.2-0.7c2.8-0.7,5.2-2.2,7.2-4.2c1.6-1.6,2.9-3.4,4.3-5.2
					C38.5,50.2,38.6,50.1,38.7,50.1C38.7,49.9,38.8,50,38.7,50.1z"/>
				<path class="st1" d="M14.5,59.2c-0.1,0-0.2-0.1-0.1-0.2c1.8-2.1,3.2-4.4,4.8-6.6c1-1.4,2.1-2.8,3.5-3.9l0,0
					c0.1-0.1,0.2,0,0.2,0.1c0.4,3.5,2,6.3,4.9,8.4c0.1,0.1,0.1,0.2,0,0.2c-1.2,0.5-2.4,0.7-3.6,0.9c-2.3,0.3-4.6,0.4-6.9,0.7
					C16.3,58.9,15.4,59.1,14.5,59.2z"/>
				<path class="st1" d="M40.2,44c0.2,0,0.3,0.2,0.2,0.3c-0.2,0.3-0.4,0.6-0.7,0.8c-1.4,1.9-2.8,3.8-4.2,5.7
					c-0.4,0.6-0.9,1.1-1.3,1.6c-0.2,0.2-0.3,0.2-0.5,0c-2.2-1.8-3.5-4-3.9-6.8c0-0.3,0-0.3,0.3-0.4c2.4-0.5,4.9-0.7,7.4-1
					C38.4,44.2,39.3,44.1,40.2,44L40.2,44z"/>
			</g>
			<path class="st1" d="M39,71.6c0-0.1,0.1,0,0.2,0c0.8,1.6,1.5,3.1,2,4.7c0.1,0.2-0.1,0.3-0.2,0.4c-1.9,1.6-4,2.7-6.4,3.5
				c-2.8,0.9-5.7,1.2-8.6,0.5c-4.4-1-7.6-3.6-9.7-7.6c-1.9-3.7-2.4-7.6-1.7-11.6c0-0.2,0.1-0.3,0.3-0.3c1.7-0.3,3.3-0.5,5-0.6l0,0
				c0.1,0,0.1,0.1,0.1,0.1c-2.2,5.6-0.3,11.6,4.8,14.3C29.5,77.4,35.2,76.3,39,71.6z"/>
		</g>
	</g>
	<g>
		<g>
			<g>
				<path class="st1" d="M38.7,35c-1-1.4-2-2.8-3.2-4.1c-2.1-2.4-4.5-4.3-7.6-5.3c-1.7-0.5-3.4-0.7-5.2-0.9c-0.1,0-0.2,0-0.3-0.2
					C21.5,22.8,21,21,21.2,19c0-0.2,0-0.3,0.1-0.5c0,0,0.1-0.1,0.1,0c0.4,0.4,0.8,0.8,1.2,1.1c1.5,1.1,3,1.8,4.9,1.9
					c2.4,0.1,4.5-1.4,5.4-3.7c0.7-1.9,0.7-3.8,0.2-5.8c0-0.1,0-0.2-0.1-0.3v-0.1c0.7,0.2,1.4,0.6,2,1c1.1,0.8,2,1.8,2.7,2.9
					c0.1,0.2,0,0.3,0,0.5c-0.6,1.3-1.1,2.6-1.5,4c-0.8,2.8-0.7,5.6,0,8.3c0.6,2.2,1.5,4.2,2.4,6.3C38.7,34.8,38.7,34.9,38.7,35
					C38.8,35.1,38.7,35.1,38.7,35z"/>
				<path class="st1" d="M42.8,9.5c0-0.1,0.2-0.1,0.3,0c0.9,2.6,2.2,5,3.3,7.4c0.7,1.6,1.4,3.2,1.6,5l0,0c0,0.1-0.1,0.2-0.2,0.1
					c-3.2-1.4-6.5-1.4-9.7,0c-0.1,0-0.2,0-0.2-0.1c0.2-1.3,0.6-2.5,1-3.6c0.8-2.2,1.9-4.2,2.9-6.3C42.2,11.2,42.5,10.4,42.8,9.5z"/>
				<path class="st1" d="M43.2,39.4c-0.1,0.1-0.3,0.1-0.3,0c-0.1-0.3-0.3-0.7-0.4-1c-0.9-2.2-1.9-4.3-2.8-6.5
					c-0.3-0.7-0.5-1.3-0.8-2c-0.1-0.2-0.1-0.3,0.2-0.4c2.6-1,5.2-1,7.8,0c0.2,0.1,0.3,0.2,0.2,0.4c-0.8,2.4-1.9,4.6-2.8,6.9
					C43.9,37.6,43.5,38.5,43.2,39.4L43.2,39.4z"/>
			</g>
			<path class="st1" d="M19.9,24.5c0,0.1,0,0.1-0.1,0.1c-1.7-0.1-3.4-0.3-5.1-0.6c-0.2,0-0.2-0.2-0.2-0.3c-0.4-2.4-0.3-4.9,0.2-7.3
				c0.6-2.9,1.8-5.5,3.8-7.7c3.1-3.4,6.9-4.8,11.4-4.6c4.1,0.2,7.7,1.7,10.9,4.3C41,8.6,41.1,8.7,41,8.9c-0.5,1.6-1.2,3.1-2,4.7l0,0
				c0,0.1-0.1,0.1-0.2,0c-3.7-4.7-9.9-6-14.8-3C19.6,13.3,17.7,18.9,19.9,24.5z"/>
		</g>
		<g>
			<g>
				<path class="st1" d="M47.3,34.9c0.7-1.6,1.4-3.2,2-4.8c1-3,1.5-6,0.8-9.2c-0.4-1.7-1.1-3.4-1.8-5c-0.1-0.1-0.1-0.2,0-0.4
					c1.1-1.7,2.4-3,4.2-3.8c0.1-0.1,0.3-0.1,0.5-0.2c0,0,0.1,0,0.1,0.1c-0.1,0.6-0.3,1.1-0.3,1.6c-0.2,1.8-0.1,3.6,0.8,5.2
					c1.1,2.2,3.4,3.3,5.9,2.8c2-0.3,3.7-1.3,5.1-2.7c0.1-0.1,0.1-0.1,0.2-0.2c0,0,0.1-0.1,0.1,0c0.2,0.7,0.2,1.5,0.1,2.2
					c-0.1,1.4-0.6,2.6-1.2,3.8c-0.1,0.2-0.3,0.2-0.4,0.2c-1.4,0.1-2.8,0.3-4.2,0.7c-2.8,0.7-5.2,2.2-7.2,4.2
					c-1.6,1.6-2.9,3.4-4.3,5.2C47.5,34.8,47.5,34.9,47.3,34.9C47.3,35.1,47.3,35,47.3,34.9z"/>
				<path class="st1" d="M71.5,25.8c0.1,0,0.2,0.1,0.1,0.2c-1.8,2.1-3.2,4.4-4.8,6.6c-1,1.4-2.1,2.8-3.5,3.9l0,0
					c-0.1,0.1-0.2,0-0.2-0.1c-0.4-3.5-2-6.3-4.9-8.4c-0.1-0.1-0.1-0.2,0-0.2c1.2-0.5,2.4-0.7,3.6-0.9c2.3-0.3,4.6-0.4,6.9-0.7
					C69.7,26.1,70.6,26,71.5,25.8z"/>
				<path class="st1" d="M45.8,41c-0.2,0-0.3-0.2-0.2-0.3c0.2-0.3,0.4-0.6,0.7-0.8c1.4-1.9,2.8-3.8,4.2-5.7c0.4-0.6,0.9-1.1,1.3-1.6
					c0.2-0.2,0.3-0.2,0.5,0c2.2,1.8,3.5,4,3.9,6.8c0,0.3,0,0.3-0.3,0.4c-2.4,0.5-4.9,0.7-7.4,1C47.7,40.8,46.7,40.9,45.8,41L45.8,41
					z"/>
			</g>
			<path class="st1" d="M47,13.4c0,0.1-0.1,0-0.2,0c-0.8-1.6-1.5-3.1-2-4.7c-0.1-0.2,0.1-0.3,0.2-0.4c1.9-1.6,4-2.7,6.4-3.5
				c2.8-0.9,5.7-1.2,8.6-0.5c4.4,1,7.6,3.6,9.7,7.6c1.9,3.7,2.4,7.6,1.7,11.6c0,0.2-0.1,0.3-0.3,0.3c-1.7,0.3-3.3,0.5-5,0.6l0,0
				c-0.1,0-0.1-0.1-0.1-0.1c2.2-5.6,0.3-11.6-4.8-14.3C56.6,7.6,50.8,8.7,47,13.4z"/>
		</g>
	</g>
	<g>
		<g>
			<path class="st1" d="M51.7,42.4c1.7-0.2,3.4-0.4,5.2-0.7c3.1-0.6,6-1.7,8.3-3.9c1.3-1.2,2.4-2.6,3.4-4.1c0.1-0.1,0.1-0.2,0.3-0.2
				c2,0.1,3.8,0.6,5.4,1.8c0.1,0.1,0.2,0.2,0.4,0.3v0.1c-0.6,0.2-1.1,0.3-1.6,0.5c-1.6,0.8-3.1,1.8-4,3.3c-1.3,2.1-1.1,4.6,0.5,6.5
				c1.3,1.6,3,2.5,4.9,3.1c0.1,0,0.2,0.1,0.3,0.1c0,0,0.1,0,0.1,0.1c-0.5,0.5-1.2,0.9-1.9,1.2c-1.2,0.6-2.6,0.8-3.9,0.9
				c-0.2,0-0.3-0.1-0.4-0.3c-0.8-1.2-1.7-2.3-2.7-3.3c-2-2.1-4.5-3.4-7.2-4.1c-2.2-0.6-4.4-0.9-6.6-1.1c-0.1,0-0.2,0-0.4,0
				C51.6,42.5,51.6,42.4,51.7,42.4z"/>
			<path class="st1" d="M71.8,58.8c0.1,0.1,0,0.2-0.1,0.2c-2.7-0.5-5.4-0.5-8.1-0.8c-1.8-0.2-3.5-0.4-5.2-1.1l0,0
				c-0.1,0-0.1-0.2,0-0.2c2.9-2.1,4.5-4.9,4.8-8.4c0-0.1,0.1-0.2,0.2-0.1c1,0.8,1.9,1.7,2.6,2.7c1.4,1.8,2.7,3.8,4,5.6
				C70.6,57.4,71.1,58.1,71.8,58.8z"/>
			<path class="st1" d="M45.7,44.2c-0.1-0.1,0-0.3,0.2-0.3C46.3,44,46.6,44,47,44c2.3,0.3,4.7,0.5,7,0.8c0.7,0.1,1.4,0.2,2.1,0.3
				c0.2,0,0.3,0.1,0.3,0.4c-0.4,2.8-1.7,5-3.9,6.8c-0.2,0.2-0.3,0.1-0.5-0.1c-1.6-1.9-3-3.9-4.5-5.9C46.9,45.6,46.3,44.9,45.7,44.2
				L45.7,44.2z"/>
		</g>
		<path class="st1" d="M70.2,31.4c-0.1,0-0.1-0.1-0.1-0.2c1-1.4,2-2.8,3.1-4.1c0.2-0.2,0.3-0.1,0.4,0c2.3,0.9,4.4,2.1,6.2,3.8
			c2.2,2,3.9,4.3,4.7,7.2c1.4,4.3,0.7,8.4-1.8,12.2c-2.2,3.4-5.4,5.8-9.2,7.3c-0.2,0.1-0.3,0.1-0.4-0.1c-1.1-1.3-2.1-2.6-3-4.1l0,0
			c0-0.1,0-0.1,0.1-0.1c6-0.9,10.2-5.6,10-11.3C80,36.8,76.2,32.3,70.2,31.4z"/>
	</g>
	<g>
		<g>
			<path class="st1" d="M34.4,42.5c-1.7,0.2-3.4,0.4-5.2,0.7c-3.1,0.6-6,1.7-8.3,3.9c-1.3,1.2-2.4,2.6-3.4,4.1
				c-0.1,0.1-0.1,0.2-0.3,0.2c-2-0.1-3.8-0.6-5.4-1.8c-0.1-0.1-0.2-0.2-0.4-0.3v-0.1c0.6-0.2,1.1-0.3,1.6-0.5
				c1.7-0.7,3.1-1.7,4.1-3.3c1.3-2.1,1.1-4.6-0.5-6.5c-1.3-1.6-3-2.5-4.9-3.1c-0.1,0-0.2-0.1-0.3-0.1c0,0-0.1,0-0.1-0.1
				c0.5-0.5,1.2-0.9,1.9-1.2c1.2-0.6,2.6-0.8,3.9-0.9c0.2,0,0.3,0.1,0.4,0.3c0.8,1.2,1.7,2.3,2.7,3.3c2,2.1,4.5,3.4,7.2,4.1
				c2.2,0.6,4.4,0.9,6.6,1.1c0.1,0,0.2,0,0.4,0C34.5,42.4,34.5,42.5,34.4,42.5z"/>
			<path class="st1" d="M14.4,26.1c-0.1-0.1,0-0.2,0.1-0.2c2.7,0.5,5.4,0.5,8.1,0.8c1.8,0.2,3.5,0.4,5.2,1.1l0,0
				c0.1,0,0.1,0.2,0,0.2c-2.9,2.1-4.5,4.9-4.8,8.4c0,0.1-0.1,0.2-0.2,0.1c-1-0.8-1.9-1.7-2.6-2.7c-1.4-1.8-2.7-3.8-4-5.6
				C15.5,27.6,15,26.9,14.4,26.1z"/>
			<path class="st1" d="M40.4,40.8c0.1,0.1,0,0.3-0.2,0.3C39.8,41,39.5,41,39.1,41c-2.3-0.3-4.7-0.5-7-0.8c-0.7-0.1-1.4-0.2-2.1-0.3
				c-0.2,0-0.3-0.1-0.3-0.4c0.4-2.8,1.7-5,3.9-6.8c0.2-0.2,0.3-0.1,0.5,0.1c1.6,1.9,3,3.9,4.5,5.9C39.3,39.3,39.9,40,40.4,40.8
				L40.4,40.8z"/>
		</g>
		<path class="st1" d="M15.9,53.5c0.1,0,0.1,0.1,0.1,0.2c-1,1.4-2,2.8-3.1,4.1c-0.2,0.2-0.3,0.1-0.4,0C10.2,57,8.1,55.7,6.3,54
			c-2.2-2-3.9-4.3-4.7-7.2c-1.4-4.3-0.7-8.4,1.8-12.2c2.2-3.4,5.4-5.8,9.2-7.3c0.2-0.1,0.3-0.1,0.4,0.1c1.1,1.3,2.1,2.6,3,4.1l0,0
			c0,0.1,0,0.1-0.1,0.1c-6,0.9-10.2,5.6-10,11.3C6.1,48.2,10,52.6,15.9,53.5z"/>
	</g>
</g>
</svg>
