<?xml version="1.0" encoding="utf-8"?>
<!-- Generator: Adobe Illustrator 24.3.0, SVG Export Plug-In . SVG Version: 6.00 Build 0)  -->
<svg version="1.1" id="Layer_1" xmlns="http://www.w3.org/2000/svg" xmlns:xlink="http://www.w3.org/1999/xlink" x="0px" y="0px"
	 viewBox="0 0 100 100" style="enable-background:new 0 0 100 100;" xml:space="preserve">
<style type="text/css">
	.st0{fill:#00E3AA;}
	.st1{fill:none;stroke:#347591;stroke-width:4;stroke-linecap:round;stroke-linejoin:round;}
</style>
<path class="st0" d="M28,18h52c3.3,0,6,2.7,6,6v52c0,3.3-2.7,6-6,6H28c-3.3,0-6-2.7-6-6V24C22,20.7,24.7,18,28,18z"/>
<path class="st1" d="M42,91.3c-11.3-5.6-27.5-24-29-48.3l29-15"/>
<line class="st1" x1="42" y1="28" x2="42" y2="89"/>
<line class="st1" x1="71" y1="43" x2="42" y2="28"/>
<path class="st1" d="M42,91.3c9.9-4.9,23.7-20.1,27.9-40.3"/>
<line class="st1" x1="16" y1="56" x2="42" y2="82"/>
<line class="st1" x1="16" y1="43" x2="42" y2="69"/>
<line class="st1" x1="24" y1="38" x2="42" y2="56"/>
<line class="st1" x1="32.5" y1="33.5" x2="42" y2="43"/>
</svg>
